<?xml version="1.0" encoding="UTF-8" standalone="no"?>
<!DOCTYPE svg PUBLIC "-//W3C//DTD SVG 1.1//EN" "http://www.w3.org/Graphics/SVG/1.1/DTD/svg11.dtd">
<svg xmlns="http://www.w3.org/2000/svg" version="1.1" viewBox="0.00 0.00 349.00 61.00">
<path fill="#000000" d="
  M 23.52 43.29
  L 21.06 53.44
  A 0.39 0.39 0.0 0 1 20.68 53.74
  L 4.66 53.76
  A 0.39 0.39 0.0 0 1 4.28 53.25
  L 20.25 3.77
  A 0.39 0.39 0.0 0 1 20.62 3.50
  L 41.11 3.50
  A 0.39 0.39 0.0 0 1 41.48 3.77
  L 56.76 53.24
  A 0.39 0.39 0.0 0 1 56.39 53.74
  L 40.27 53.76
  A 0.39 0.39 0.0 0 1 39.89 53.46
  L 37.47 43.30
  A 0.39 0.39 0.0 0 0 37.09 43.00
  L 23.90 42.99
  A 0.39 0.39 0.0 0 0 23.52 43.29
  Z
  M 25.93 32.05
  A 0.34 0.34 0.0 0 0 26.26 32.48
  L 34.66 32.51
  A 0.34 0.34 0.0 0 0 34.99 32.08
  L 30.84 16.73
  A 0.34 0.34 0.0 0 0 30.19 16.72
  L 25.93 32.05
  Z"
/>
<path fill="#000000" d="
  M 143.32 17.02
  L 134.04 18.98
  A 0.86 0.86 0.0 0 1 133.01 18.29
  L 131.48 9.74
  A 0.60 0.60 0.0 0 1 131.87 9.07
  Q 138.05 6.89 144.38 4.43
  Q 147.07 3.39 149.86 3.45
  Q 155.14 3.55 159.53 3.50
  A 0.46 0.46 0.0 0 1 160.00 3.96
  L 160.00 53.25
  A 0.50 0.50 0.0 0 1 159.50 53.75
  L 144.63 53.75
  A 0.63 0.62 -0.0 0 1 144.00 53.13
  L 144.00 17.57
  Q 144.00 16.87 143.32 17.02
  Z"
/>
<path fill="#000000" d="
  M 223.75 32.93
  L 223.75 53.32
  A 0.43 0.43 0.0 0 1 223.32 53.75
  L 207.68 53.75
  A 0.43 0.43 0.0 0 1 207.25 53.32
  L 207.25 3.92
  A 0.43 0.43 0.0 0 1 207.68 3.49
  L 223.31 3.50
  A 0.43 0.43 0.0 0 1 223.74 3.93
  L 223.75 21.32
  A 0.43 0.43 0.0 0 0 224.18 21.75
  L 236.07 21.75
  A 0.43 0.43 0.0 0 0 236.50 21.32
  L 236.51 3.92
  A 0.43 0.43 0.0 0 1 236.94 3.49
  L 252.57 3.50
  A 0.43 0.43 0.0 0 1 253.00 3.93
  L 253.00 53.31
  A 0.43 0.43 0.0 0 1 252.57 53.74
  L 236.93 53.76
  A 0.43 0.43 0.0 0 1 236.50 53.33
  L 236.50 32.93
  A 0.43 0.43 0.0 0 0 236.07 32.50
  L 224.18 32.50
  A 0.43 0.43 0.0 0 0 223.75 32.93
  Z"
/>
<path fill="#000000" d="
  M 76.53 18.51
  C 82.03 12.07 91.32 10.35 98.72 14.23
  Q 100.74 15.29 101.17 17.55
  Q 101.28 18.17 101.73 17.72
  Q 109.23 10.13 120.41 13.00
  Q 125.03 14.19 125.74 17.77
  C 126.38 21.08 126.53 24.61 126.52 27.97
  Q 126.47 41.42 126.51 53.18
  Q 126.52 53.75 125.95 53.75
  L 111.51 53.75
  A 0.50 0.49 -0.0 0 1 111.01 53.26
  L 110.98 27.51
  Q 110.98 24.93 108.41 25.10
  Q 106.38 25.24 104.22 25.38
  Q 102.00 25.53 102.00 27.75
  L 102.00 53.50
  A 0.25 0.25 0.0 0 1 101.75 53.75
  L 87.01 53.75
  Q 86.51 53.75 86.51 53.25
  L 86.47 27.53
  Q 86.47 25.02 83.97 25.15
  Q 81.87 25.25 79.78 25.35
  Q 77.50 25.46 77.50 27.74
  L 77.50 53.50
  A 0.25 0.25 0.0 0 1 77.25 53.75
  L 62.25 53.75
  Q 61.75 53.75 61.75 53.25
  L 61.75 13.62
  A 0.63 0.62 -0.0 0 1 62.38 13.00
  L 74.22 13.00
  A 0.58 0.58 0.0 0 1 74.79 13.46
  L 75.91 18.36
  Q 76.07 19.04 76.53 18.51
  Z"
/>
<path fill="#000000" d="
  M 186.75 27.44
  L 186.75 53.50
  A 0.25 0.24 0.0 0 1 186.50 53.74
  L 171.50 53.76
  A 0.51 0.50 -90.0 0 1 171.00 53.25
  L 171.00 14.00
  Q 171.00 13.00 172.00 13.00
  L 183.71 13.00
  Q 184.19 13.00 184.31 13.46
  L 185.64 18.63
  A 0.21 0.20 58.5 0 0 185.99 18.72
  C 189.75 14.44 194.11 10.72 200.24 12.86
  Q 200.81 13.05 200.80 13.65
  Q 200.67 19.75 199.71 25.78
  Q 199.63 26.33 199.08 26.30
  Q 193.75 26.05 187.40 26.72
  Q 186.75 26.79 186.75 27.44
  Z"
/>
<path fill="#000000" d="
  M 326.25 24.49
  Q 326.41 26.09 328.26 26.53
  C 336.10 28.40 345.17 31.14 344.98 40.38
  C 344.77 50.88 337.19 54.48 327.99 54.75
  Q 319.40 55.01 311.32 53.04
  A 0.90 0.90 0.0 0 1 310.65 51.99
  L 312.50 42.72
  Q 312.61 42.14 313.20 42.24
  Q 320.29 43.44 328.35 43.25
  Q 328.85 43.24 329.10 42.82
  Q 329.43 42.26 329.21 41.62
  Q 329.00 41.04 328.50 40.75
  Q 327.50 40.17 326.44 39.94
  C 319.64 38.45 312.98 35.60 311.70 28.21
  C 310.99 24.14 311.86 15.02 317.20 13.72
  C 325.96 11.59 333.98 12.21 342.70 13.29
  Q 343.12 13.34 343.07 13.76
  L 342.00 23.21
  A 0.93 0.93 0.0 0 1 340.93 24.02
  Q 334.63 23.03 327.59 23.01
  A 1.34 1.34 0.0 0 0 326.25 24.49
  Z"
/>
<path fill="#000000" d="
  M 288.99 48.23
  A 0.28 0.28 0.0 0 0 288.52 48.11
  Q 278.92 58.08 266.34 53.18
  Q 263.79 52.19 263.19 49.72
  Q 262.19 45.59 262.21 41.08
  Q 262.28 26.68 262.22 13.57
  A 0.57 0.57 0.0 0 1 262.79 13.00
  L 277.03 13.00
  Q 277.77 13.00 277.77 13.74
  Q 277.72 25.14 277.78 37.18
  Q 277.79 38.80 278.09 40.48
  Q 278.27 41.50 279.30 41.64
  Q 283.36 42.20 287.15 40.94
  A 0.52 0.50 -9.7 0 0 287.50 40.46
  L 287.50 13.50
  A 0.50 0.50 0.0 0 1 288.00 13.00
  L 302.75 13.00
  Q 303.25 13.00 303.25 13.50
  L 303.25 53.25
  A 0.50 0.50 0.0 0 1 302.75 53.75
  L 290.95 53.75
  A 0.74 0.74 0.0 0 1 290.23 53.19
  L 288.99 48.23
  Z"
/>
</svg>
