<?xml version="1.0" encoding="UTF-8" standalone="no"?>
<!DOCTYPE svg PUBLIC "-//W3C//DTD SVG 1.1//EN" "http://www.w3.org/Graphics/SVG/1.1/DTD/svg11.dtd">
<svg xmlns="http://www.w3.org/2000/svg" version="1.1" viewBox="0.00 0.00 1920.00 1080.00">
<g stroke-width="2.00" fill="none" stroke-linecap="butt">
<path stroke="#80e3e9" vector-effect="non-scaling-stroke" d="
  M 588.85 229.20
  C 588.07 226.89 589.08 224.61 586.91 222.60
  A 1.58 1.55 67.7 0 0 585.98 222.20
  Q 583.95 222.06 582.26 222.32
  Q 578.75 222.84 572.70 224.27"
/>
<path stroke="#027896" vector-effect="non-scaling-stroke" d="
  M 572.70 224.27
  Q 574.51 220.59 572.92 219.85
  Q 570.57 218.75 567.51 218.71
  Q 559.42 218.59 551.38 219.72
  Q 532.68 222.33 513.37 225.47
  C 497.97 227.98 479.80 231.16 477.30 250.06
  C 476.25 257.96 476.96 266.44 477.00 274.51
  Q 477.11 298.72 476.76 326.25
  Q 476.74 327.65 476.75 329.01
  Q 476.82 346.87 476.69 364.27
  Q 476.61 376.26 477.74 384.21
  Q 480.50 403.42 489.72 422.93
  Q 503.07 451.18 532.34 463.92
  C 544.14 469.05 556.08 471.94 568.58 474.52
  Q 571.13 475.05 568.87 476.35
  Q 568.44 476.59 567.96 476.69
  Q 527.45 484.68 489.17 494.16
  Q 481.46 496.07 473.45 499.40
  Q 471.82 500.08 471.05 501.51
  Q 467.61 507.91 462.37 518.49"
/>
<path stroke="#80e3e9" vector-effect="non-scaling-stroke" d="
  M 462.37 518.49
  C 456.14 513.84 450.16 509.48 442.01 509.45
  C 439.72 509.45 438.09 509.06 436.10 508.42"
/>
<path stroke="#027896" vector-effect="non-scaling-stroke" d="
  M 436.10 508.42
  Q 409.33 499.33 388.44 516.65
  C 379.12 524.38 375.05 534.77 372.83 546.51
  Q 370.81 557.13 373.83 567.14
  Q 377.47 579.22 384.37 589.40
  A 1.37 1.37 0.0 0 1 383.50 591.51
  Q 369.24 594.30 356.50 599.25
  Q 347.13 602.89 345.34 614.65"
/>
<path stroke="#80e3e9" vector-effect="non-scaling-stroke" d="
  M 345.34 614.65
  Q 339.78 595.56 332.70 582.05
  C 312.92 544.28 279.17 521.97 237.23 513.46"
/>
<path stroke="#027896" vector-effect="non-scaling-stroke" d="
  M 237.23 513.46
  Q 214.89 504.75 192.49 507.52
  Q 162.85 511.19 132.80 524.95
  C 109.57 535.59 90.42 551.89 76.28 573.22
  Q 50.75 611.75 48.77 659.77
  C 48.63 663.19 48.49 666.60 48.49 670.09
  Q 48.52 707.21 48.25 748.50
  Q 48.24 750.00 48.24 751.50
  Q 48.23 803.41 48.27 851.51
  C 48.27 858.88 48.96 866.64 50.93 873.38
  C 53.85 883.34 66.53 887.92 76.25 887.19
  Q 127.11 883.37 188.70 876.49
  C 202.06 875.00 212.29 869.41 214.01 854.55
  C 214.27 852.23 216.67 851.55 218.37 853.07
  C 238.01 870.65 263.34 881.22 288.96 883.60
  Q 298.49 884.48 312.74 884.19
  Q 336.88 883.70 377.39 884.69
  Q 387.97 884.94 400.53 883.69
  C 434.88 880.26 463.29 865.75 480.40 834.49
  Q 481.38 832.71 483.15 833.58
  A 2.05 2.05 0.0 0 1 484.10 834.53
  C 497.06 861.06 523.82 875.94 552.68 881.05
  Q 561.58 882.63 572.87 883.06
  Q 600.36 884.11 624.65 883.60
  Q 643.55 883.21 661.25 874.81
  C 665.09 872.98 669.31 871.68 673.46 873.31
  Q 684.39 877.61 694.22 880.61
  C 716.06 887.30 737.01 881.16 756.92 871.18
  C 760.59 869.34 763.97 868.56 767.86 870.39
  C 801.50 886.19 840.84 888.83 874.90 872.79
  Q 876.92 871.84 876.86 874.06
  Q 876.85 874.57 876.03 876.05
  Q 872.45 882.55 869.86 888.95
  C 865.38 900.00 870.93 911.54 880.03 918.37
  Q 917.17 946.25 951.49 973.27
  Q 957.42 977.94 965.51 980.28
  C 976.13 983.36 985.94 978.36 993.03 970.57
  C 1030.18 929.74 1062.88 881.85 1065.14 824.99
  Q 1065.16 824.48 1065.28 823.97
  Q 1065.79 821.81 1066.53 823.91
  Q 1077.89 856.38 1109.42 871.03
  C 1111.21 871.86 1111.71 874.03 1110.88 875.77
  Q 1107.48 882.86 1104.07 890.65
  C 1099.76 900.50 1104.32 912.44 1112.54 918.91
  Q 1151.10 949.26 1185.57 975.03
  C 1196.43 983.15 1209.22 985.75 1220.55 976.74
  Q 1224.52 973.58 1229.25 967.95
  Q 1246.69 947.20 1262.28 925.88
  Q 1264.83 922.40 1268.15 925.12
  Q 1296.96 948.70 1328.93 972.25
  C 1332.98 975.23 1337.34 978.07 1342.17 979.56
  Q 1356.16 983.86 1367.07 973.71
  C 1379.93 961.72 1391.42 947.47 1402.35 933.80
  Q 1415.26 917.65 1423.47 899.52
  Q 1427.20 891.28 1431.46 882.43
  C 1432.48 880.33 1434.76 879.65 1436.97 880.40
  Q 1445.49 883.27 1454.13 883.61
  Q 1481.38 884.67 1511.73 883.40
  Q 1530.07 882.64 1545.77 873.97
  C 1549.22 872.06 1553.47 872.49 1556.80 874.41
  C 1566.18 879.83 1577.68 883.20 1587.52 883.53
  Q 1617.44 884.55 1669.37 884.16
  Q 1676.86 884.10 1684.73 882.66
  Q 1693.86 880.99 1703.54 879.00
  Q 1706.00 878.50 1708.09 879.39
  Q 1718.53 883.79 1731.22 888.56
  Q 1769.23 902.85 1806.80 890.28
  C 1824.03 884.51 1840.80 876.51 1853.80 864.27
  Q 1868.81 850.13 1875.37 828.57
  Q 1882.87 803.89 1883.66 777.56
  Q 1885.38 720.29 1882.60 661.30
  C 1882.41 657.31 1882.58 650.05 1880.05 647.16
  C 1879.29 646.28 1878.16 646.16 1877.25 645.29"
/>
<path stroke="#80e3e9" vector-effect="non-scaling-stroke" d="
  M 1877.25 645.29
  Q 1875.65 629.30 1868.98 616.77
  Q 1859.90 599.73 1844.51 584.24
  Q 1803.45 542.92 1761.23 502.77
  Q 1760.54 502.12 1759.55 503.38"
/>
<path stroke="#027896" vector-effect="non-scaling-stroke" d="
  M 1759.55 503.38
  Q 1752.05 500.15 1745.24 499.52
  C 1736.51 498.72 1729.83 502.24 1723.22 508.52
  C 1708.39 522.61 1692.59 538.97 1677.63 549.12
  C 1674.08 551.53 1669.58 552.29 1665.56 553.63
  Q 1642.82 561.19 1624.76 578.35
  Q 1621.22 581.72 1618.73 585.19
  C 1614.50 591.09 1611.34 598.20 1607.32 603.80
  Q 1602.91 609.96 1595.36 611.99"
/>
<path stroke="#80e3e9" vector-effect="non-scaling-stroke" d="
  M 1595.36 611.99
  Q 1595.02 604.89 1594.79 598.50
  Q 1594.72 596.40 1593.24 595.76
  Q 1589.17 593.99 1585.84 597.02"
/>
<path stroke="#027896" vector-effect="non-scaling-stroke" d="
  M 1585.84 597.02
  Q 1585.16 592.77 1581.50 592.50
  Q 1575.71 592.07 1570.00 591.46
  C 1567.17 591.16 1567.24 588.58 1568.17 586.56
  Q 1575.22 571.15 1568.40 555.53"
/>
<path stroke="#80e3e9" vector-effect="non-scaling-stroke" d="
  M 1568.40 555.53
  Q 1568.13 545.85 1564.19 538.58
  C 1559.56 530.01 1549.79 525.56 1540.34 524.24"
/>
<path stroke="#027896" vector-effect="non-scaling-stroke" d="
  M 1540.34 524.24
  C 1527.21 519.73 1513.56 521.87 1500.76 526.99
  C 1488.63 531.83 1480.66 540.25 1476.60 552.66
  C 1471.42 568.46 1472.48 584.35 1481.63 598.52
  C 1483.21 600.97 1482.70 604.20 1479.45 604.72
  Q 1468.51 606.49 1461.97 610.07
  C 1451.96 615.56 1449.97 624.60 1448.63 635.31
  Q 1448.29 637.98 1446.13 636.39
  L 1445.78 636.13
  Q 1443.78 634.66 1443.94 632.17
  Q 1445.44 608.89 1437.90 587.89"
/>
<path stroke="#80e3e9" vector-effect="non-scaling-stroke" d="
  M 1437.90 587.89
  Q 1435.72 583.52 1436.03 578.01
  A 1.72 1.71 -2.0 0 0 1434.10 576.21
  L 1429.06 576.84"
/>
<path stroke="#027896" vector-effect="non-scaling-stroke" d="
  M 1429.06 576.84
  Q 1428.98 576.27 1428.76 576.19
  Q 1416.56 571.51 1402.49 573.63
  Q 1364.47 579.38 1324.56 584.98
  C 1315.24 586.28 1307.14 588.62 1299.90 593.63
  Q 1292.72 598.59 1288.69 607.34"
/>
<path stroke="#80e3e9" vector-effect="non-scaling-stroke" d="
  M 1288.69 607.34
  Q 1278.72 584.29 1262.91 568.09
  Q 1239.79 544.41 1205.45 539.33"
/>
<path stroke="#027896" vector-effect="non-scaling-stroke" d="
  M 1205.45 539.33
  Q 1175.36 530.77 1144.98 539.66
  Q 1127.83 544.68 1112.53 553.94
  Q 1079.34 574.01 1067.28 610.23
  A 0.73 0.73 0.0 0 1 1066.05 610.48
  L 1065.83 610.23
  Q 1065.03 609.33 1065.21 608.14
  Q 1066.29 601.24 1064.99 595.01
  Q 1063.95 590.05 1058.51 589.20"
/>
<path stroke="#80e3e9" vector-effect="non-scaling-stroke" d="
  M 1058.51 589.20
  Q 1058.90 586.67 1059.00 584.50
  Q 1059.15 581.29 1058.34 578.10
  Q 1057.73 575.71 1055.10 576.36"
/>
<path stroke="#027896" vector-effect="non-scaling-stroke" d="
  M 1055.10 576.36
  Q 1042.73 570.54 1029.49 572.70
  Q 984.85 579.99 944.50 583.98
  Q 934.87 584.93 932.32 585.06"
/>
<path stroke="#80e3e9" vector-effect="non-scaling-stroke" d="
  M 932.32 585.06
  C 932.58 580.94 933.26 574.64 931.22 570.93
  A 2.34 2.34 0.0 0 0 928.73 569.76
  Q 926.63 570.16 925.43 572.01"
/>
<path stroke="#027896" vector-effect="non-scaling-stroke" d="
  M 925.43 572.01
  Q 921.50 566.50 914.99 566.41
  Q 910.16 566.34 908.75 566.57
  Q 862.80 573.98 817.26 583.58
  Q 806.35 585.88 799.01 592.82
  C 795.45 596.20 792.87 597.02 788.04 597.62
  Q 756.71 601.51 725.38 605.35
  Q 725.21 605.37 724.97 605.24"
/>
<path stroke="#80e3e9" vector-effect="non-scaling-stroke" d="
  M 724.97 605.24
  Q 725.80 603.89 725.76 602.93
  A 1.19 1.18 2.2 0 0 724.70 601.79
  Q 719.90 601.29 716.04 602.40"
/>
<path stroke="#027896" vector-effect="non-scaling-stroke" d="
  M 716.04 602.40
  C 709.61 596.31 701.23 596.39 693.05 597.51
  Q 656.30 602.56 622.32 608.64
  A 1.40 1.38 -11.1 0 1 620.71 607.57
  Q 619.36 601.34 619.55 595.35
  C 619.81 586.74 619.74 578.12 619.76 569.70
  C 619.78 563.23 620.19 556.54 619.99 549.91
  Q 619.74 541.50 619.75 535.08
  Q 619.81 501.09 619.22 487.00
  Q 619.07 483.34 614.27 484.77"
/>
<path stroke="#80e3e9" vector-effect="non-scaling-stroke" d="
  M 614.27 484.77
  Q 614.65 481.14 615.68 480.19
  C 617.68 478.36 620.28 476.16 619.30 473.54"
/>
<path stroke="#027896" vector-effect="non-scaling-stroke" d="
  M 619.30 473.54
  Q 636.41 470.12 652.07 462.12
  C 663.99 456.02 676.42 446.83 683.59 435.60
  Q 693.61 419.90 699.55 400.47
  C 700.15 398.53 702.17 397.10 704.19 398.02
  C 715.00 402.93 726.34 407.22 738.09 408.35
  Q 740.86 408.61 756.42 408.84
  Q 778.74 409.18 801.13 408.72
  Q 804.88 408.65 807.36 408.36
  C 814.73 407.50 821.63 404.45 828.93 404.48
  Q 831.77 404.49 832.77 404.77
  Q 839.84 406.79 846.18 408.00
  Q 868.57 412.27 890.13 404.90
  C 895.67 403.01 900.21 402.93 905.62 404.76
  Q 912.29 407.02 918.05 408.06
  C 930.21 410.25 943.54 406.94 954.80 401.48
  C 955.52 401.13 957.26 400.97 958.05 401.13
  Q 966.15 402.83 969.32 403.97
  Q 978.34 407.20 984.76 407.92
  C 993.92 408.94 1003.28 408.65 1012.45 408.27
  C 1014.42 408.18 1016.25 408.61 1016.59 410.90
  Q 1017.92 419.92 1023.30 426.25
  Q 1025.90 429.31 1035.26 436.52
  Q 1051.89 449.33 1071.86 464.44
  C 1080.75 471.15 1091.27 474.09 1101.73 468.66
  Q 1106.77 466.05 1109.89 462.92
  Q 1131.89 440.84 1146.95 412.99
  C 1148.65 409.84 1151.61 408.33 1155.21 408.70
  Q 1170.07 410.20 1185.75 409.35
  C 1195.81 408.81 1206.11 407.48 1215.67 404.79
  C 1222.09 402.98 1228.53 405.09 1235.24 407.28
  Q 1238.58 408.37 1241.51 408.52
  Q 1278.42 410.49 1314.07 408.00
  C 1319.23 407.64 1324.20 407.76 1328.92 409.71
  Q 1349.95 418.40 1370.97 416.08
  C 1386.09 414.41 1400.60 408.52 1413.38 400.31
  C 1432.92 387.76 1439.43 364.33 1442.33 342.50
  Q 1448.95 292.80 1438.69 244.61"
/>
<path stroke="#80e3e9" vector-effect="non-scaling-stroke" d="
  M 1438.69 244.61
  Q 1436.07 228.42 1426.82 214.65
  Q 1420.65 205.47 1413.01 197.49
  Q 1388.72 172.10 1361.65 149.84"
/>
<path stroke="#027896" vector-effect="non-scaling-stroke" d="
  M 1361.65 149.84
  Q 1352.47 146.59 1343.25 146.22
  C 1334.88 145.89 1329.10 148.88 1322.97 155.33
  C 1314.81 163.90 1305.93 172.71 1295.97 178.74
  Q 1291.43 181.49 1283.46 184.95
  Q 1277.93 187.35 1271.51 191.29
  Q 1260.89 197.81 1254.65 207.58"
/>
<path stroke="#80e3e9" vector-effect="non-scaling-stroke" d="
  M 1254.65 207.58
  Q 1251.37 207.58 1249.34 208.86"
/>
<path stroke="#027896" vector-effect="non-scaling-stroke" d="
  M 1249.34 208.86
  Q 1247.72 207.21 1245.50 205.94
  C 1243.51 204.81 1243.24 204.09 1242.87 201.95
  Q 1241.18 192.38 1239.54 182.78"
/>
<path stroke="#80e3e9" vector-effect="non-scaling-stroke" d="
  M 1239.54 182.78
  Q 1236.48 163.52 1217.55 162.68"
/>
<path stroke="#027896" vector-effect="non-scaling-stroke" d="
  M 1217.55 162.68
  C 1197.06 154.62 1175.56 162.13 1165.69 181.72
  C 1161.14 190.76 1161.26 202.69 1163.47 212.87
  Q 1163.99 215.25 1161.66 215.95
  Q 1161.34 216.04 1161.02 215.93
  Q 1158.58 215.11 1158.40 213.17
  Q 1157.77 206.13 1157.25 200.07"
/>
<path stroke="#80e3e9" vector-effect="non-scaling-stroke" d="
  M 1157.25 200.07
  Q 1158.57 196.10 1155.00 195.76
  Q 1150.78 195.36 1145.55 197.37"
/>
<path stroke="#027896" vector-effect="non-scaling-stroke" d="
  M 1145.55 197.37
  Q 1142.69 193.41 1137.94 192.61
  Q 1132.63 191.72 1127.24 192.36
  Q 1109.21 194.53 1091.26 196.64"
/>
<path stroke="#80e3e9" vector-effect="non-scaling-stroke" d="
  M 1091.26 196.64
  L 1068.47 191.64"
/>
<path stroke="#027896" vector-effect="non-scaling-stroke" d="
  M 1068.47 191.64
  Q 1045.37 189.16 1023.01 191.85
  Q 1004.02 194.13 986.33 201.31
  Q 974.44 206.12 962.01 209.27
  Q 950.50 212.18 938.76 212.50"
/>
<path stroke="#80e3e9" vector-effect="non-scaling-stroke" d="
  M 938.76 212.50
  Q 938.13 211.00 936.25 211.22
  Q 934.38 211.45 933.42 212.58"
/>
<path stroke="#027896" vector-effect="non-scaling-stroke" d="
  M 933.42 212.58
  Q 923.17 207.86 912.75 208.76
  Q 893.96 210.37 873.50 214.74
  Q 869.91 215.51 863.38 213.08"
/>
<path stroke="#80e3e9" vector-effect="non-scaling-stroke" d="
  M 863.38 213.08
  Q 863.66 212.20 863.59 211.23"
/>
<path stroke="#027896" vector-effect="non-scaling-stroke" d="
  M 863.59 211.23
  Q 866.77 210.01 867.26 208.02
  Q 870.17 196.07 863.64 184.53"
/>
<path stroke="#80e3e9" vector-effect="non-scaling-stroke" d="
  M 863.64 184.53
  Q 863.58 178.99 862.21 175.00
  Q 858.06 162.92 844.01 163.16"
/>
<path stroke="#027896" vector-effect="non-scaling-stroke" d="
  M 844.01 163.16
  Q 835.65 159.40 825.99 160.04
  Q 818.88 160.52 813.96 161.01
  C 810.98 161.31 807.56 161.41 804.96 161.11
  Q 795.80 160.04 786.37 159.67
  A 2.08 2.07 84.0 0 1 784.44 158.10
  Q 784.01 156.35 783.66 154.26
  Q 782.50 147.35 777.83 142.00"
/>
<path stroke="#80e3e9" vector-effect="non-scaling-stroke" d="
  M 777.83 142.00
  Q 778.66 137.71 778.90 133.22
  Q 778.90 133.16 779.01 132.26
  Q 779.24 130.39 777.25 129.99
  Q 775.66 129.68 774.82 131.17"
/>
<path stroke="#027896" vector-effect="non-scaling-stroke" d="
  M 774.82 131.17
  Q 765.25 125.63 756.00 127.26
  Q 728.50 132.11 682.77 144.14
  Q 669.25 147.70 667.80 160.78
  Q 666.58 171.87 666.77 194.42
  C 666.79 197.01 665.14 199.02 662.60 199.26
  Q 637.84 201.65 611.92 208.62
  C 605.18 210.43 599.82 213.45 596.21 219.25
  Q 592.53 225.15 588.85 229.20"
/>
<path stroke="#8194ac" vector-effect="non-scaling-stroke" d="
  M 774.82 131.17
  L 711.11 145.59
  A 2.64 2.64 0.0 0 0 709.05 148.20
  Q 710.29 230.15 712.80 312.63
  Q 712.96 317.72 713.31 322.44
  C 714.06 332.54 717.87 342.29 724.15 349.79
  C 734.16 361.73 749.78 365.83 765.61 366.53
  Q 775.63 366.98 783.34 366.71
  C 795.11 366.31 807.13 366.59 818.66 366.45
  Q 827.80 366.35 832.17 364.64
  Q 840.16 361.53 845.64 353.89
  A 1.33 1.32 45.4 0 1 847.81 353.91
  Q 855.90 365.53 869.83 366.64
  Q 879.10 367.38 888.85 366.84
  C 898.76 366.30 908.20 363.14 913.58 354.26
  A 1.63 1.63 0.0 0 1 915.74 353.67
  Q 916.81 354.24 917.71 355.11
  C 928.12 365.09 941.36 369.72 955.53 365.17
  Q 962.51 362.92 968.91 358.59
  C 970.79 357.32 972.06 355.67 973.59 354.08
  A 2.67 2.66 -48.6 0 1 977.19 353.85
  C 1003.29 375.06 1053.28 370.74 1067.89 337.10
  Q 1071.34 329.14 1072.41 317.79
  Q 1073.63 304.76 1073.34 290.58
  Q 1072.46 246.59 1073.08 201.11
  C 1073.10 199.66 1074.27 198.14 1075.75 198.07
  Q 1083.53 197.70 1091.26 196.64"
/>
<path stroke="#8194ac" vector-effect="non-scaling-stroke" d="
  M 1145.55 197.37
  L 1088.56 205.74
  Q 1086.27 206.07 1086.26 208.39
  Q 1086.19 267.92 1086.31 328.02
  Q 1086.33 337.33 1085.11 343.44
  C 1081.86 359.62 1071.51 374.20 1060.02 386.72
  C 1058.90 387.94 1057.92 389.68 1059.49 390.90
  Q 1083.20 409.38 1107.62 428.35
  Q 1109.58 429.88 1111.29 428.06
  Q 1122.60 416.00 1131.84 404.49
  C 1142.88 390.73 1151.45 374.70 1152.39 357.04
  Q 1152.46 355.80 1153.09 354.78
  A 1.38 1.38 0.0 0 1 1155.34 354.65
  C 1160.58 361.21 1165.84 365.52 1174.72 366.39
  Q 1178.45 366.76 1182.81 366.76
  Q 1198.50 366.76 1211.83 366.54
  Q 1220.34 366.39 1224.85 364.61
  Q 1232.30 361.66 1237.37 354.73
  Q 1237.99 353.88 1238.92 353.50
  Q 1240.40 352.91 1241.34 354.30
  C 1247.82 363.90 1255.98 366.61 1266.85 366.69
  Q 1291.47 366.86 1319.29 366.52
  C 1325.94 366.43 1330.84 365.07 1335.77 361.26
  A 2.87 2.86 -48.2 0 1 1339.01 361.07
  Q 1347.16 366.01 1356.13 369.30
  Q 1385.97 380.25 1412.95 366.43
  Q 1429.81 357.79 1434.79 340.47
  Q 1436.23 335.45 1436.45 324.39
  Q 1437.24 284.66 1438.69 244.61"
/>
<path stroke="#8194ac" vector-effect="non-scaling-stroke" d="
  M 619.30 473.54
  L 508.29 498.35
  A 1.58 1.58 0.0 0 0 507.06 499.80
  Q 506.93 501.97 506.99 504.22
  Q 510.40 632.72 512.94 761.32
  C 513.18 773.50 514.48 787.24 520.00 798.29
  C 528.19 814.69 540.83 827.19 557.41 834.34
  Q 565.21 837.70 572.28 838.85
  Q 589.59 841.65 608.45 841.77
  Q 633.17 841.93 649.59 841.12
  Q 672.51 839.99 684.86 821.62
  A 2.18 2.18 0.0 0 1 688.27 821.35
  C 713.88 848.97 754.47 847.93 779.22 819.73
  A 1.45 1.44 -49.1 0 1 781.24 819.58
  Q 808.68 842.89 845.94 841.37
  C 874.34 840.22 901.99 830.96 917.85 806.84
  C 925.22 795.62 929.37 782.43 930.94 768.97
  Q 932.82 752.95 932.97 736.31
  Q 933.15 716.60 932.81 699.00
  Q 932.79 697.86 932.79 696.75
  Q 932.88 676.29 932.53 657.74
  Q 932.51 656.58 932.52 655.50
  Q 932.60 636.63 932.29 615.00
  Q 932.07 600.01 932.32 585.06"
/>
<path stroke="#8194ac" vector-effect="non-scaling-stroke" d="
  M 1055.10 576.36
  L 957.82 590.51
  A 4.09 4.08 86.7 0 0 954.32 594.45
  C 954.07 605.18 954.42 616.21 954.43 626.88
  Q 954.50 704.45 954.55 782.06
  Q 954.56 795.72 953.55 802.27
  C 949.31 829.80 930.55 853.83 912.02 874.52
  A 3.26 3.25 39.6 0 0 912.47 879.28
  L 989.38 938.15
  A 1.99 1.98 -49.4 0 0 992.02 937.94
  Q 1020.56 907.95 1041.46 872.88
  C 1049.73 858.98 1055.76 847.04 1057.71 832.21
  Q 1058.50 826.25 1058.50 812.25
  Q 1058.50 700.74 1058.51 589.20"
/>
<path stroke="#8194ac" vector-effect="non-scaling-stroke" d="
  M 1205.45 539.33
  Q 1200.98 539.50 1196.48 539.54
  C 1163.17 539.81 1135.83 554.54 1116.93 581.94
  Q 1107.26 595.96 1103.93 611.60
  Q 1102.45 618.52 1102.25 631.46
  Q 1101.54 676.95 1101.86 711.50
  Q 1101.99 725.09 1102.03 739.59
  C 1102.05 749.12 1102.27 758.50 1102.38 768.25
  C 1102.52 781.24 1105.06 795.33 1111.94 806.27
  C 1123.94 825.32 1145.03 837.40 1167.21 841.39
  C 1168.87 841.69 1169.20 843.47 1168.34 844.70
  Q 1156.03 862.17 1144.78 878.19
  A 1.31 1.30 36.6 0 0 1145.05 879.98
  Q 1184.08 909.93 1221.97 939.05
  Q 1223.82 940.46 1225.38 938.72
  C 1248.08 913.26 1270.11 886.56 1283.23 855.39
  C 1287.03 846.37 1288.69 837.44 1289.16 827.76
  Q 1289.72 816.21 1289.76 803.75
  Q 1289.89 760.50 1289.53 686.00
  Q 1289.52 683.74 1289.53 681.50
  Q 1289.60 649.46 1288.69 607.34"
/>
<path stroke="#8194ac" vector-effect="non-scaling-stroke" d="
  M 1429.06 576.84
  L 1336.33 590.48
  A 3.61 3.60 85.9 0 0 1333.25 594.04
  Q 1333.24 615.00 1333.26 636.50
  Q 1333.26 638.20 1333.23 640.01
  Q 1332.87 666.38 1332.94 692.76
  C 1332.95 694.34 1333.25 695.99 1333.25 697.41
  Q 1333.25 725.87 1333.25 754.33
  C 1333.25 768.62 1334.11 783.39 1332.61 797.19
  C 1329.37 827.02 1309.09 852.54 1290.06 875.02
  A 2.79 2.79 0.0 0 0 1290.49 879.03
  L 1367.60 938.39
  A 1.74 1.73 -45.4 0 0 1369.73 938.37
  Q 1370.62 937.66 1371.43 936.77
  Q 1396.68 909.03 1413.51 885.62
  Q 1434.16 856.91 1435.88 822.00
  Q 1435.91 821.50 1436.31 821.21
  A 0.87 0.86 52.3 0 1 1437.52 821.37
  C 1445.93 831.95 1455.96 838.78 1469.51 840.93
  Q 1476.33 842.01 1482.27 841.99
  Q 1505.01 841.91 1527.88 841.58
  C 1545.49 841.33 1558.72 834.38 1568.73 820.84
  Q 1569.91 819.25 1571.20 820.77
  C 1578.49 829.41 1586.03 836.57 1597.19 839.87
  Q 1602.74 841.51 1616.61 841.60
  Q 1635.81 841.73 1650.50 841.62
  C 1664.09 841.52 1678.01 841.52 1692.53 841.38
  Q 1701.87 841.29 1706.49 839.92
  Q 1713.62 837.81 1719.82 832.60
  A 2.54 2.53 -51.2 0 1 1722.62 832.29
  C 1736.19 839.31 1751.89 846.66 1766.45 850.34
  C 1797.62 858.22 1825.82 851.09 1851.68 832.55
  C 1873.05 817.24 1876.73 792.58 1877.18 768.25
  Q 1878.32 706.78 1877.25 645.29"
/>
<path stroke="#8194ac" vector-effect="non-scaling-stroke" d="
  M 237.23 513.46
  C 226.66 513.05 217.59 512.74 205.75 513.89
  Q 173.32 517.04 146.73 535.19
  C 123.24 551.23 105.46 576.49 96.73 602.94
  Q 91.51 618.77 91.51 633.39
  Q 91.51 687.05 91.46 734.32
  C 91.46 736.69 91.19 739.06 91.20 741.46
  Q 91.31 790.56 91.23 842.75
  A 2.32 2.32 0.0 0 0 93.77 845.07
  L 208.96 834.23
  A 2.19 2.19 0.0 0 0 210.94 832.05
  Q 211.01 732.29 211.02 655.02
  Q 211.02 653.55 211.88 652.25
  A 2.08 2.08 0.0 0 1 213.52 651.34
  L 223.50 650.97
  Q 227.96 650.81 227.97 655.26
  C 228.06 682.49 228.18 709.36 227.74 736.24
  Q 227.51 750.46 227.88 758.22
  C 229.80 798.26 260.37 833.96 300.62 839.93
  C 317.38 842.42 335.72 841.95 352.76 841.58
  Q 363.47 841.35 374.50 841.30
  C 386.46 841.26 398.63 841.64 410.52 841.79
  Q 419.85 841.91 426.45 840.70
  C 465.66 833.53 490.38 800.62 490.45 761.49
  Q 490.55 702.06 490.29 638.50
  Q 490.29 637.36 490.29 636.25
  Q 490.25 609.04 490.25 580.50
  Q 490.25 578.94 488.72 579.24
  L 390.57 598.43
  A 2.02 2.02 0.0 0 0 388.94 600.42
  L 389.13 639.00
  A 3.41 3.41 0.0 0 1 385.75 642.42
  L 349.95 642.70
  A 2.62 2.61 88.2 0 1 347.32 640.23
  Q 346.69 629.44 346.15 618.82
  Q 346.09 617.55 345.34 614.65"
/>
<path stroke="#8194ac" vector-effect="non-scaling-stroke" d="
  M 436.10 508.42
  C 427.13 512.24 416.89 517.54 414.63 528.07
  C 411.84 541.04 415.43 552.53 427.85 558.38
  Q 434.98 561.73 442.83 560.62
  C 456.02 558.76 466.22 550.66 465.92 536.49
  Q 465.73 527.19 462.37 518.49"
/>
<path stroke="#8194ac" vector-effect="non-scaling-stroke" d="
  M 572.70 224.27
  L 521.07 232.04
  A 2.08 2.07 -3.2 0 0 519.31 234.00
  C 519.03 240.26 519.61 247.01 519.52 252.70
  C 519.36 262.51 519.78 273.38 519.74 282.10
  Q 519.62 312.04 519.28 341.75
  Q 519.13 355.36 519.98 361.71
  C 523.69 389.37 536.40 412.17 562.22 424.33
  Q 574.75 430.23 588.50 431.21
  C 600.37 432.06 611.11 431.60 622.76 431.27
  Q 636.02 430.89 643.00 429.38
  C 681.17 421.13 699.93 384.33 699.97 347.95
  Q 700.05 274.50 699.95 205.08
  Q 699.94 204.03 699.64 202.98
  Q 699.17 201.38 697.52 201.64
  L 636.10 211.27
  A 2.39 2.39 0.0 0 0 634.08 213.64
  L 634.32 300.98
  A 2.27 2.26 -89.1 0 1 631.99 303.25
  Q 618.64 302.86 604.75 303.02
  C 601.41 303.07 598.03 302.71 594.74 302.84
  Q 590.89 302.98 588.45 301.49
  C 584.15 298.86 584.59 295.05 584.46 289.55
  Q 583.90 265.49 584.72 240.27
  C 584.81 237.46 585.31 234.65 586.78 232.50
  Q 588.51 229.98 588.85 229.20"
/>
<path stroke="#8194ac" vector-effect="non-scaling-stroke" d="
  M 1157.25 200.07
  Q 1153.02 205.14 1152.84 212.01
  C 1152.74 215.47 1152.64 218.88 1152.97 222.32
  Q 1153.63 229.09 1153.76 235.85
  C 1153.81 238.32 1155.75 239.78 1158.20 239.51
  Q 1172.11 237.92 1185.39 239.57
  C 1187.38 239.81 1189.44 238.75 1189.47 236.51
  Q 1189.58 228.32 1189.83 219.76
  A 2.60 2.60 0.0 0 1 1192.09 217.25
  Q 1220.12 213.53 1248.50 209.75
  Q 1249.85 209.56 1249.34 208.86"
/>
<path stroke="#8194ac" vector-effect="non-scaling-stroke" d="
  M 614.27 484.77
  Q 614.24 561.15 614.32 637.75
  C 614.33 642.43 617.45 643.62 621.43 643.19
  Q 633.28 641.93 646.53 643.07
  Q 651.37 643.48 651.29 638.94
  Q 651.07 626.04 650.77 614.29
  A 3.19 3.18 -4.7 0 1 653.52 611.05
  L 716.04 602.40"
/>
<path stroke="#8194ac" vector-effect="non-scaling-stroke" d="
  M 724.97 605.24
  L 724.21 605.52
  Q 723.71 605.69 723.69 606.22
  L 722.68 641.32
  A 1.39 1.39 0.0 0 0 724.07 642.75
  L 741.88 642.75
  A 1.88 1.87 90.0 0 0 743.75 640.87
  L 743.75 614.70
  A 3.52 3.52 0.0 0 1 746.79 611.21
  L 813.26 601.97
  A 1.80 1.80 0.0 0 1 815.31 603.77
  L 814.94 640.21
  A 2.32 2.32 0.0 0 0 817.21 642.56
  L 834.05 642.93
  A 2.47 2.47 0.0 0 0 836.58 640.45
  L 836.30 589.87
  A 2.51 2.50 85.0 0 1 838.37 587.39
  L 925.43 572.01"
/>
<path stroke="#8194ac" vector-effect="non-scaling-stroke" d="
  M 1437.90 587.89
  Q 1436.64 627.20 1436.64 637.75
  C 1436.64 640.53 1439.26 642.83 1442.00 642.81
  Q 1467.56 642.63 1490.61 642.43
  A 2.16 2.16 0.0 0 0 1492.75 640.27
  L 1492.75 611.99
  A 2.13 2.12 -4.1 0 1 1494.58 609.89
  L 1585.84 597.02"
/>
<path stroke="#8194ac" vector-effect="non-scaling-stroke" d="
  M 777.83 142.00
  L 778.07 237.08
  A 2.14 2.13 89.2 0 0 780.25 239.21
  L 794.81 238.92
  A 2.23 2.23 0.0 0 0 796.99 236.69
  L 797.01 220.99
  A 3.44 3.44 0.0 0 1 799.98 217.58
  Q 829.79 213.53 859.99 209.41
  Q 861.47 209.21 863.59 211.23"
/>
<path stroke="#8194ac" vector-effect="non-scaling-stroke" d="
  M 863.38 213.08
  L 862.96 236.62
  A 2.16 2.15 0.9 0 0 865.09 238.81
  L 889.62 239.07
  A 2.61 2.61 0.0 0 0 892.26 236.37
  L 891.83 223.08
  A 4.72 4.71 84.8 0 1 895.83 218.27
  L 933.42 212.58"
/>
<path stroke="#8194ac" vector-effect="non-scaling-stroke" d="
  M 938.76 212.50
  Q 938.50 222.80 938.33 233.55
  C 938.29 236.32 938.87 238.50 941.89 238.72
  C 943.97 238.87 948.90 239.75 950.57 238.32
  Q 951.90 237.18 951.78 234.74
  Q 951.46 228.27 951.17 221.97
  Q 951.03 219.00 953.97 218.59
  L 995.74 212.74
  Q 997.75 212.46 997.75 214.49
  L 997.75 235.79
  A 3.38 3.38 0.0 0 0 1000.62 239.13
  Q 1004.24 239.68 1008.06 239.48
  A 3.03 3.03 0.0 0 0 1010.93 236.49
  L 1011.31 205.99
  A 2.66 2.65 84.4 0 1 1013.41 203.43
  L 1068.47 191.64"
/>
<path stroke="#8194ac" vector-effect="non-scaling-stroke" d="
  M 1217.55 162.68
  C 1209.63 167.87 1198.00 178.44 1206.74 188.64
  Q 1212.06 194.85 1219.30 196.63
  C 1228.49 198.90 1235.52 190.02 1239.54 182.78"
/>
<path stroke="#8194ac" vector-effect="non-scaling-stroke" d="
  M 1361.65 149.84
  Q 1352.94 159.64 1344.03 168.27
  Q 1337.47 174.62 1329.34 179.21
  C 1325.22 181.54 1320.46 182.61 1316.00 184.45
  C 1292.75 194.06 1282.13 213.90 1280.45 238.32
  A 0.73 0.72 1.7 0 1 1279.72 239.00
  L 1256.27 239.00
  A 1.00 0.99 89.4 0 1 1255.28 238.02
  L 1254.65 207.58"
/>
<path stroke="#8194ac" vector-effect="non-scaling-stroke" d="
  M 1540.34 524.24
  C 1525.44 529.05 1513.68 537.74 1515.85 554.81
  C 1517.53 568.06 1528.46 577.95 1541.86 577.78
  C 1556.87 577.58 1563.27 568.16 1568.40 555.53"
/>
<path stroke="#8194ac" vector-effect="non-scaling-stroke" d="
  M 1759.55 503.38
  Q 1758.86 505.24 1757.94 506.19
  Q 1743.29 521.19 1716.47 546.76
  Q 1713.22 549.85 1710.33 550.56
  C 1682.17 557.43 1658.03 571.44 1644.70 597.67
  C 1637.86 611.12 1634.51 626.53 1633.71 641.59
  Q 1633.66 642.50 1632.75 642.50
  L 1595.98 642.50
  Q 1594.97 642.50 1594.99 641.49
  L 1595.36 611.99"
/>
<path stroke="#8194ac" vector-effect="non-scaling-stroke" d="
  M 844.01 163.16
  C 834.01 167.50 826.79 175.75 831.87 186.89
  C 836.45 196.93 848.85 201.53 857.53 193.28
  Q 861.18 189.82 863.64 184.53"
/>
<path stroke="#8194ac" vector-effect="non-scaling-stroke" d="
  M 625.83 266.21
  A 16.83 16.83 0.0 0 0 609.00 249.38
  A 16.83 16.83 0.0 0 0 592.17 266.21
  A 16.83 16.83 0.0 0 0 609.00 283.04
  A 16.83 16.83 0.0 0 0 625.83 266.21"
/>
<path stroke="#8194ac" vector-effect="non-scaling-stroke" d="
  M 814.1077 196.9547
  A 17.04 16.42 75.6 0 0 825.7741 176.3665
  A 17.04 16.42 75.6 0 0 805.6323 163.9453
  A 17.04 16.42 75.6 0 0 793.9659 184.5335
  A 17.04 16.42 75.6 0 0 814.1077 196.9547"
/>
<path stroke="#8194ac" vector-effect="non-scaling-stroke" d="
  M 1344.89 231.50
  A 9.77 9.77 0.0 0 0 1335.12 221.73
  A 9.77 9.77 0.0 0 0 1325.35 231.50
  A 9.77 9.77 0.0 0 0 1335.12 241.27
  A 9.77 9.77 0.0 0 0 1344.89 231.50"
/>
<path stroke="#8194ac" vector-effect="non-scaling-stroke" d="
  M 1391.53 245.83
  A 9.91 9.91 0.0 0 0 1381.62 235.92
  A 9.91 9.91 0.0 0 0 1371.71 245.83
  A 9.91 9.91 0.0 0 0 1381.62 255.74
  A 9.91 9.91 0.0 0 0 1391.53 245.83"
/>
<path stroke="#8194ac" vector-effect="non-scaling-stroke" d="
  M 1734.20 630.92
  A 15.53 15.53 0.0 0 0 1718.67 615.39
  A 15.53 15.53 0.0 0 0 1703.14 630.92
  A 15.53 15.53 0.0 0 0 1718.67 646.45
  A 15.53 15.53 0.0 0 0 1734.20 630.92"
/>
<path stroke="#8194ac" vector-effect="non-scaling-stroke" d="
  M 1806.21 653.29
  A 15.54 15.54 0.0 0 0 1790.67 637.75
  A 15.54 15.54 0.0 0 0 1775.13 653.29
  A 15.54 15.54 0.0 0 0 1790.67 668.83
  A 15.54 15.54 0.0 0 0 1806.21 653.29"
/>
<path stroke="#8194ac" vector-effect="non-scaling-stroke" d="
  M 1211.49 646.95
  A 15.41 15.41 0.0 0 0 1196.08 631.54
  A 15.41 15.41 0.0 0 0 1180.67 646.95
  A 15.41 15.41 0.0 0 0 1196.08 662.36
  A 15.41 15.41 0.0 0 0 1211.49 646.95"
/>
</g>
<path fill="#01c7d2" d="
  M 1920.00 80.00
  L 1920.00 1001.00
  L 0.00 1001.00
  L 0.00 80.00
  L 1920.00 80.00
  Z
  M 588.85 229.20
  C 588.07 226.89 589.08 224.61 586.91 222.60
  A 1.58 1.55 67.7 0 0 585.98 222.20
  Q 583.95 222.06 582.26 222.32
  Q 578.75 222.84 572.70 224.27
  Q 574.51 220.59 572.92 219.85
  Q 570.57 218.75 567.51 218.71
  Q 559.42 218.59 551.38 219.72
  Q 532.68 222.33 513.37 225.47
  C 497.97 227.98 479.80 231.16 477.30 250.06
  C 476.25 257.96 476.96 266.44 477.00 274.51
  Q 477.11 298.72 476.76 326.25
  Q 476.74 327.65 476.75 329.01
  Q 476.82 346.87 476.69 364.27
  Q 476.61 376.26 477.74 384.21
  Q 480.50 403.42 489.72 422.93
  Q 503.07 451.18 532.34 463.92
  C 544.14 469.05 556.08 471.94 568.58 474.52
  Q 571.13 475.05 568.87 476.35
  Q 568.44 476.59 567.96 476.69
  Q 527.45 484.68 489.17 494.16
  Q 481.46 496.07 473.45 499.40
  Q 471.82 500.08 471.05 501.51
  Q 467.61 507.91 462.37 518.49
  C 456.14 513.84 450.16 509.48 442.01 509.45
  C 439.72 509.45 438.09 509.06 436.10 508.42
  Q 409.33 499.33 388.44 516.65
  C 379.12 524.38 375.05 534.77 372.83 546.51
  Q 370.81 557.13 373.83 567.14
  Q 377.47 579.22 384.37 589.40
  A 1.37 1.37 0.0 0 1 383.50 591.51
  Q 369.24 594.30 356.50 599.25
  Q 347.13 602.89 345.34 614.65
  Q 339.78 595.56 332.70 582.05
  C 312.92 544.28 279.17 521.97 237.23 513.46
  Q 214.89 504.75 192.49 507.52
  Q 162.85 511.19 132.80 524.95
  C 109.57 535.59 90.42 551.89 76.28 573.22
  Q 50.75 611.75 48.77 659.77
  C 48.63 663.19 48.49 666.60 48.49 670.09
  Q 48.52 707.21 48.25 748.50
  Q 48.24 750.00 48.24 751.50
  Q 48.23 803.41 48.27 851.51
  C 48.27 858.88 48.96 866.64 50.93 873.38
  C 53.85 883.34 66.53 887.92 76.25 887.19
  Q 127.11 883.37 188.70 876.49
  C 202.06 875.00 212.29 869.41 214.01 854.55
  C 214.27 852.23 216.67 851.55 218.37 853.07
  C 238.01 870.65 263.34 881.22 288.96 883.60
  Q 298.49 884.48 312.74 884.19
  Q 336.88 883.70 377.39 884.69
  Q 387.97 884.94 400.53 883.69
  C 434.88 880.26 463.29 865.75 480.40 834.49
  Q 481.38 832.71 483.15 833.58
  A 2.05 2.05 0.0 0 1 484.10 834.53
  C 497.06 861.06 523.82 875.94 552.68 881.05
  Q 561.58 882.63 572.87 883.06
  Q 600.36 884.11 624.65 883.60
  Q 643.55 883.21 661.25 874.81
  C 665.09 872.98 669.31 871.68 673.46 873.31
  Q 684.39 877.61 694.22 880.61
  C 716.06 887.30 737.01 881.16 756.92 871.18
  C 760.59 869.34 763.97 868.56 767.86 870.39
  C 801.50 886.19 840.84 888.83 874.90 872.79
  Q 876.92 871.84 876.86 874.06
  Q 876.85 874.57 876.03 876.05
  Q 872.45 882.55 869.86 888.95
  C 865.38 900.00 870.93 911.54 880.03 918.37
  Q 917.17 946.25 951.49 973.27
  Q 957.42 977.94 965.51 980.28
  C 976.13 983.36 985.94 978.36 993.03 970.57
  C 1030.18 929.74 1062.88 881.85 1065.14 824.99
  Q 1065.16 824.48 1065.28 823.97
  Q 1065.79 821.81 1066.53 823.91
  Q 1077.89 856.38 1109.42 871.03
  C 1111.21 871.86 1111.71 874.03 1110.88 875.77
  Q 1107.48 882.86 1104.07 890.65
  C 1099.76 900.50 1104.32 912.44 1112.54 918.91
  Q 1151.10 949.26 1185.57 975.03
  C 1196.43 983.15 1209.22 985.75 1220.55 976.74
  Q 1224.52 973.58 1229.25 967.95
  Q 1246.69 947.20 1262.28 925.88
  Q 1264.83 922.40 1268.15 925.12
  Q 1296.96 948.70 1328.93 972.25
  C 1332.98 975.23 1337.34 978.07 1342.17 979.56
  Q 1356.16 983.86 1367.07 973.71
  C 1379.93 961.72 1391.42 947.47 1402.35 933.80
  Q 1415.26 917.65 1423.47 899.52
  Q 1427.20 891.28 1431.46 882.43
  C 1432.48 880.33 1434.76 879.65 1436.97 880.40
  Q 1445.49 883.27 1454.13 883.61
  Q 1481.38 884.67 1511.73 883.40
  Q 1530.07 882.64 1545.77 873.97
  C 1549.22 872.06 1553.47 872.49 1556.80 874.41
  C 1566.18 879.83 1577.68 883.20 1587.52 883.53
  Q 1617.44 884.55 1669.37 884.16
  Q 1676.86 884.10 1684.73 882.66
  Q 1693.86 880.99 1703.54 879.00
  Q 1706.00 878.50 1708.09 879.39
  Q 1718.53 883.79 1731.22 888.56
  Q 1769.23 902.85 1806.80 890.28
  C 1824.03 884.51 1840.80 876.51 1853.80 864.27
  Q 1868.81 850.13 1875.37 828.57
  Q 1882.87 803.89 1883.66 777.56
  Q 1885.38 720.29 1882.60 661.30
  C 1882.41 657.31 1882.58 650.05 1880.05 647.16
  C 1879.29 646.28 1878.16 646.16 1877.25 645.29
  Q 1875.65 629.30 1868.98 616.77
  Q 1859.90 599.73 1844.51 584.24
  Q 1803.45 542.92 1761.23 502.77
  Q 1760.54 502.12 1759.55 503.38
  Q 1752.05 500.15 1745.24 499.52
  C 1736.51 498.72 1729.83 502.24 1723.22 508.52
  C 1708.39 522.61 1692.59 538.97 1677.63 549.12
  C 1674.08 551.53 1669.58 552.29 1665.56 553.63
  Q 1642.82 561.19 1624.76 578.35
  Q 1621.22 581.72 1618.73 585.19
  C 1614.50 591.09 1611.34 598.20 1607.32 603.80
  Q 1602.91 609.96 1595.36 611.99
  Q 1595.02 604.89 1594.79 598.50
  Q 1594.72 596.40 1593.24 595.76
  Q 1589.17 593.99 1585.84 597.02
  Q 1585.16 592.77 1581.50 592.50
  Q 1575.71 592.07 1570.00 591.46
  C 1567.17 591.16 1567.24 588.58 1568.17 586.56
  Q 1575.22 571.15 1568.40 555.53
  Q 1568.13 545.85 1564.19 538.58
  C 1559.56 530.01 1549.79 525.56 1540.34 524.24
  C 1527.21 519.73 1513.56 521.87 1500.76 526.99
  C 1488.63 531.83 1480.66 540.25 1476.60 552.66
  C 1471.42 568.46 1472.48 584.35 1481.63 598.52
  C 1483.21 600.97 1482.70 604.20 1479.45 604.72
  Q 1468.51 606.49 1461.97 610.07
  C 1451.96 615.56 1449.97 624.60 1448.63 635.31
  Q 1448.29 637.98 1446.13 636.39
  L 1445.78 636.13
  Q 1443.78 634.66 1443.94 632.17
  Q 1445.44 608.89 1437.90 587.89
  Q 1435.72 583.52 1436.03 578.01
  A 1.72 1.71 -2.0 0 0 1434.10 576.21
  L 1429.06 576.84
  Q 1428.98 576.27 1428.76 576.19
  Q 1416.56 571.51 1402.49 573.63
  Q 1364.47 579.38 1324.56 584.98
  C 1315.24 586.28 1307.14 588.62 1299.90 593.63
  Q 1292.72 598.59 1288.69 607.34
  Q 1278.72 584.29 1262.91 568.09
  Q 1239.79 544.41 1205.45 539.33
  Q 1175.36 530.77 1144.98 539.66
  Q 1127.83 544.68 1112.53 553.94
  Q 1079.34 574.01 1067.28 610.23
  A 0.73 0.73 0.0 0 1 1066.05 610.48
  L 1065.83 610.23
  Q 1065.03 609.33 1065.21 608.14
  Q 1066.29 601.24 1064.99 595.01
  Q 1063.95 590.05 1058.51 589.20
  Q 1058.90 586.67 1059.00 584.50
  Q 1059.15 581.29 1058.34 578.10
  Q 1057.73 575.71 1055.10 576.36
  Q 1042.73 570.54 1029.49 572.70
  Q 984.85 579.99 944.50 583.98
  Q 934.87 584.93 932.32 585.06
  C 932.58 580.94 933.26 574.64 931.22 570.93
  A 2.34 2.34 0.0 0 0 928.73 569.76
  Q 926.63 570.16 925.43 572.01
  Q 921.50 566.50 914.99 566.41
  Q 910.16 566.34 908.75 566.57
  Q 862.80 573.98 817.26 583.58
  Q 806.35 585.88 799.01 592.82
  C 795.45 596.20 792.87 597.02 788.04 597.62
  Q 756.71 601.51 725.38 605.35
  Q 725.21 605.37 724.97 605.24
  Q 725.80 603.89 725.76 602.93
  A 1.19 1.18 2.2 0 0 724.70 601.79
  Q 719.90 601.29 716.04 602.40
  C 709.61 596.31 701.23 596.39 693.05 597.51
  Q 656.30 602.56 622.32 608.64
  A 1.40 1.38 -11.1 0 1 620.71 607.57
  Q 619.36 601.34 619.55 595.35
  C 619.81 586.74 619.74 578.12 619.76 569.70
  C 619.78 563.23 620.19 556.54 619.99 549.91
  Q 619.74 541.50 619.75 535.08
  Q 619.81 501.09 619.22 487.00
  Q 619.07 483.34 614.27 484.77
  Q 614.65 481.14 615.68 480.19
  C 617.68 478.36 620.28 476.16 619.30 473.54
  Q 636.41 470.12 652.07 462.12
  C 663.99 456.02 676.42 446.83 683.59 435.60
  Q 693.61 419.90 699.55 400.47
  C 700.15 398.53 702.17 397.10 704.19 398.02
  C 715.00 402.93 726.34 407.22 738.09 408.35
  Q 740.86 408.61 756.42 408.84
  Q 778.74 409.18 801.13 408.72
  Q 804.88 408.65 807.36 408.36
  C 814.73 407.50 821.63 404.45 828.93 404.48
  Q 831.77 404.49 832.77 404.77
  Q 839.84 406.79 846.18 408.00
  Q 868.57 412.27 890.13 404.90
  C 895.67 403.01 900.21 402.93 905.62 404.76
  Q 912.29 407.02 918.05 408.06
  C 930.21 410.25 943.54 406.94 954.80 401.48
  C 955.52 401.13 957.26 400.97 958.05 401.13
  Q 966.15 402.83 969.32 403.97
  Q 978.34 407.20 984.76 407.92
  C 993.92 408.94 1003.28 408.65 1012.45 408.27
  C 1014.42 408.18 1016.25 408.61 1016.59 410.90
  Q 1017.92 419.92 1023.30 426.25
  Q 1025.90 429.31 1035.26 436.52
  Q 1051.89 449.33 1071.86 464.44
  C 1080.75 471.15 1091.27 474.09 1101.73 468.66
  Q 1106.77 466.05 1109.89 462.92
  Q 1131.89 440.84 1146.95 412.99
  C 1148.65 409.84 1151.61 408.33 1155.21 408.70
  Q 1170.07 410.20 1185.75 409.35
  C 1195.81 408.81 1206.11 407.48 1215.67 404.79
  C 1222.09 402.98 1228.53 405.09 1235.24 407.28
  Q 1238.58 408.37 1241.51 408.52
  Q 1278.42 410.49 1314.07 408.00
  C 1319.23 407.64 1324.20 407.76 1328.92 409.71
  Q 1349.95 418.40 1370.97 416.08
  C 1386.09 414.41 1400.60 408.52 1413.38 400.31
  C 1432.92 387.76 1439.43 364.33 1442.33 342.50
  Q 1448.95 292.80 1438.69 244.61
  Q 1436.07 228.42 1426.82 214.65
  Q 1420.65 205.47 1413.01 197.49
  Q 1388.72 172.10 1361.65 149.84
  Q 1352.47 146.59 1343.25 146.22
  C 1334.88 145.89 1329.10 148.88 1322.97 155.33
  C 1314.81 163.90 1305.93 172.71 1295.97 178.74
  Q 1291.43 181.49 1283.46 184.95
  Q 1277.93 187.35 1271.51 191.29
  Q 1260.89 197.81 1254.65 207.58
  Q 1251.37 207.58 1249.34 208.86
  Q 1247.72 207.21 1245.50 205.94
  C 1243.51 204.81 1243.24 204.09 1242.87 201.95
  Q 1241.18 192.38 1239.54 182.78
  Q 1236.48 163.52 1217.55 162.68
  C 1197.06 154.62 1175.56 162.13 1165.69 181.72
  C 1161.14 190.76 1161.26 202.69 1163.47 212.87
  Q 1163.99 215.25 1161.66 215.95
  Q 1161.34 216.04 1161.02 215.93
  Q 1158.58 215.11 1158.40 213.17
  Q 1157.77 206.13 1157.25 200.07
  Q 1158.57 196.10 1155.00 195.76
  Q 1150.78 195.36 1145.55 197.37
  Q 1142.69 193.41 1137.94 192.61
  Q 1132.63 191.72 1127.24 192.36
  Q 1109.21 194.53 1091.26 196.64
  L 1068.47 191.64
  Q 1045.37 189.16 1023.01 191.85
  Q 1004.02 194.13 986.33 201.31
  Q 974.44 206.12 962.01 209.27
  Q 950.50 212.18 938.76 212.50
  Q 938.13 211.00 936.25 211.22
  Q 934.38 211.45 933.42 212.58
  Q 923.17 207.86 912.75 208.76
  Q 893.96 210.37 873.50 214.74
  Q 869.91 215.51 863.38 213.08
  Q 863.66 212.20 863.59 211.23
  Q 866.77 210.01 867.26 208.02
  Q 870.17 196.07 863.64 184.53
  Q 863.58 178.99 862.21 175.00
  Q 858.06 162.92 844.01 163.16
  Q 835.65 159.40 825.99 160.04
  Q 818.88 160.52 813.96 161.01
  C 810.98 161.31 807.56 161.41 804.96 161.11
  Q 795.80 160.04 786.37 159.67
  A 2.08 2.07 84.0 0 1 784.44 158.10
  Q 784.01 156.35 783.66 154.26
  Q 782.50 147.35 777.83 142.00
  Q 778.66 137.71 778.90 133.22
  Q 778.90 133.16 779.01 132.26
  Q 779.24 130.39 777.25 129.99
  Q 775.66 129.68 774.82 131.17
  Q 765.25 125.63 756.00 127.26
  Q 728.50 132.11 682.77 144.14
  Q 669.25 147.70 667.80 160.78
  Q 666.58 171.87 666.77 194.42
  C 666.79 197.01 665.14 199.02 662.60 199.26
  Q 637.84 201.65 611.92 208.62
  C 605.18 210.43 599.82 213.45 596.21 219.25
  Q 592.53 225.15 588.85 229.20
  Z"
/>
<path fill="#032859" d="
  M 774.82 131.17
  L 711.11 145.59
  A 2.64 2.64 0.0 0 0 709.05 148.20
  Q 710.29 230.15 712.80 312.63
  Q 712.96 317.72 713.31 322.44
  C 714.06 332.54 717.87 342.29 724.15 349.79
  C 734.16 361.73 749.78 365.83 765.61 366.53
  Q 775.63 366.98 783.34 366.71
  C 795.11 366.31 807.13 366.59 818.66 366.45
  Q 827.80 366.35 832.17 364.64
  Q 840.16 361.53 845.64 353.89
  A 1.33 1.32 45.4 0 1 847.81 353.91
  Q 855.90 365.53 869.83 366.64
  Q 879.10 367.38 888.85 366.84
  C 898.76 366.30 908.20 363.14 913.58 354.26
  A 1.63 1.63 0.0 0 1 915.74 353.67
  Q 916.81 354.24 917.71 355.11
  C 928.12 365.09 941.36 369.72 955.53 365.17
  Q 962.51 362.92 968.91 358.59
  C 970.79 357.32 972.06 355.67 973.59 354.08
  A 2.67 2.66 -48.6 0 1 977.19 353.85
  C 1003.29 375.06 1053.28 370.74 1067.89 337.10
  Q 1071.34 329.14 1072.41 317.79
  Q 1073.63 304.76 1073.34 290.58
  Q 1072.46 246.59 1073.08 201.11
  C 1073.10 199.66 1074.27 198.14 1075.75 198.07
  Q 1083.53 197.70 1091.26 196.64
  Q 1109.21 194.53 1127.24 192.36
  Q 1132.63 191.72 1137.94 192.61
  Q 1142.69 193.41 1145.55 197.37
  L 1088.56 205.74
  Q 1086.27 206.07 1086.26 208.39
  Q 1086.19 267.92 1086.31 328.02
  Q 1086.33 337.33 1085.11 343.44
  C 1081.86 359.62 1071.51 374.20 1060.02 386.72
  C 1058.90 387.94 1057.92 389.68 1059.49 390.90
  Q 1083.20 409.38 1107.62 428.35
  Q 1109.58 429.88 1111.29 428.06
  Q 1122.60 416.00 1131.84 404.49
  C 1142.88 390.73 1151.45 374.70 1152.39 357.04
  Q 1152.46 355.80 1153.09 354.78
  A 1.38 1.38 0.0 0 1 1155.34 354.65
  C 1160.58 361.21 1165.84 365.52 1174.72 366.39
  Q 1178.45 366.76 1182.81 366.76
  Q 1198.50 366.76 1211.83 366.54
  Q 1220.34 366.39 1224.85 364.61
  Q 1232.30 361.66 1237.37 354.73
  Q 1237.99 353.88 1238.92 353.50
  Q 1240.40 352.91 1241.34 354.30
  C 1247.82 363.90 1255.98 366.61 1266.85 366.69
  Q 1291.47 366.86 1319.29 366.52
  C 1325.94 366.43 1330.84 365.07 1335.77 361.26
  A 2.87 2.86 -48.2 0 1 1339.01 361.07
  Q 1347.16 366.01 1356.13 369.30
  Q 1385.97 380.25 1412.95 366.43
  Q 1429.81 357.79 1434.79 340.47
  Q 1436.23 335.45 1436.45 324.39
  Q 1437.24 284.66 1438.69 244.61
  Q 1448.95 292.80 1442.33 342.50
  C 1439.43 364.33 1432.92 387.76 1413.38 400.31
  C 1400.60 408.52 1386.09 414.41 1370.97 416.08
  Q 1349.95 418.40 1328.92 409.71
  C 1324.20 407.76 1319.23 407.64 1314.07 408.00
  Q 1278.42 410.49 1241.51 408.52
  Q 1238.58 408.37 1235.24 407.28
  C 1228.53 405.09 1222.09 402.98 1215.67 404.79
  C 1206.11 407.48 1195.81 408.81 1185.75 409.35
  Q 1170.07 410.20 1155.21 408.70
  C 1151.61 408.33 1148.65 409.84 1146.95 412.99
  Q 1131.89 440.84 1109.89 462.92
  Q 1106.77 466.05 1101.73 468.66
  C 1091.27 474.09 1080.75 471.15 1071.86 464.44
  Q 1051.89 449.33 1035.26 436.52
  Q 1025.90 429.31 1023.30 426.25
  Q 1017.92 419.92 1016.59 410.90
  C 1016.25 408.61 1014.42 408.18 1012.45 408.27
  C 1003.28 408.65 993.92 408.94 984.76 407.92
  Q 978.34 407.20 969.32 403.97
  Q 966.15 402.83 958.05 401.13
  C 957.26 400.97 955.52 401.13 954.80 401.48
  C 943.54 406.94 930.21 410.25 918.05 408.06
  Q 912.29 407.02 905.62 404.76
  C 900.21 402.93 895.67 403.01 890.13 404.90
  Q 868.57 412.27 846.18 408.00
  Q 839.84 406.79 832.77 404.77
  Q 831.77 404.49 828.93 404.48
  C 821.63 404.45 814.73 407.50 807.36 408.36
  Q 804.88 408.65 801.13 408.72
  Q 778.74 409.18 756.42 408.84
  Q 740.86 408.61 738.09 408.35
  C 726.34 407.22 715.00 402.93 704.19 398.02
  C 702.17 397.10 700.15 398.53 699.55 400.47
  Q 693.61 419.90 683.59 435.60
  C 676.42 446.83 663.99 456.02 652.07 462.12
  Q 636.41 470.12 619.30 473.54
  L 508.29 498.35
  A 1.58 1.58 0.0 0 0 507.06 499.80
  Q 506.93 501.97 506.99 504.22
  Q 510.40 632.72 512.94 761.32
  C 513.18 773.50 514.48 787.24 520.00 798.29
  C 528.19 814.69 540.83 827.19 557.41 834.34
  Q 565.21 837.70 572.28 838.85
  Q 589.59 841.65 608.45 841.77
  Q 633.17 841.93 649.59 841.12
  Q 672.51 839.99 684.86 821.62
  A 2.18 2.18 0.0 0 1 688.27 821.35
  C 713.88 848.97 754.47 847.93 779.22 819.73
  A 1.45 1.44 -49.1 0 1 781.24 819.58
  Q 808.68 842.89 845.94 841.37
  C 874.34 840.22 901.99 830.96 917.85 806.84
  C 925.22 795.62 929.37 782.43 930.94 768.97
  Q 932.82 752.95 932.97 736.31
  Q 933.15 716.60 932.81 699.00
  Q 932.79 697.86 932.79 696.75
  Q 932.88 676.29 932.53 657.74
  Q 932.51 656.58 932.52 655.50
  Q 932.60 636.63 932.29 615.00
  Q 932.07 600.01 932.32 585.06
  Q 934.87 584.93 944.50 583.98
  Q 984.85 579.99 1029.49 572.70
  Q 1042.73 570.54 1055.10 576.36
  L 957.82 590.51
  A 4.09 4.08 86.7 0 0 954.32 594.45
  C 954.07 605.18 954.42 616.21 954.43 626.88
  Q 954.50 704.45 954.55 782.06
  Q 954.56 795.72 953.55 802.27
  C 949.31 829.80 930.55 853.83 912.02 874.52
  A 3.26 3.25 39.6 0 0 912.47 879.28
  L 989.38 938.15
  A 1.99 1.98 -49.4 0 0 992.02 937.94
  Q 1020.56 907.95 1041.46 872.88
  C 1049.73 858.98 1055.76 847.04 1057.71 832.21
  Q 1058.50 826.25 1058.50 812.25
  Q 1058.50 700.74 1058.51 589.20
  Q 1063.95 590.05 1064.99 595.01
  Q 1066.29 601.24 1065.21 608.14
  Q 1065.03 609.33 1065.83 610.23
  L 1066.05 610.48
  A 0.73 0.73 0.0 0 0 1067.28 610.23
  Q 1079.34 574.01 1112.53 553.94
  Q 1127.83 544.68 1144.98 539.66
  Q 1175.36 530.77 1205.45 539.33
  Q 1200.98 539.50 1196.48 539.54
  C 1163.17 539.81 1135.83 554.54 1116.93 581.94
  Q 1107.26 595.96 1103.93 611.60
  Q 1102.45 618.52 1102.25 631.46
  Q 1101.54 676.95 1101.86 711.50
  Q 1101.99 725.09 1102.03 739.59
  C 1102.05 749.12 1102.27 758.50 1102.38 768.25
  C 1102.52 781.24 1105.06 795.33 1111.94 806.27
  C 1123.94 825.32 1145.03 837.40 1167.21 841.39
  C 1168.87 841.69 1169.20 843.47 1168.34 844.70
  Q 1156.03 862.17 1144.78 878.19
  A 1.31 1.30 36.6 0 0 1145.05 879.98
  Q 1184.08 909.93 1221.97 939.05
  Q 1223.82 940.46 1225.38 938.72
  C 1248.08 913.26 1270.11 886.56 1283.23 855.39
  C 1287.03 846.37 1288.69 837.44 1289.16 827.76
  Q 1289.72 816.21 1289.76 803.75
  Q 1289.89 760.50 1289.53 686.00
  Q 1289.52 683.74 1289.53 681.50
  Q 1289.60 649.46 1288.69 607.34
  Q 1292.72 598.59 1299.90 593.63
  C 1307.14 588.62 1315.24 586.28 1324.56 584.98
  Q 1364.47 579.38 1402.49 573.63
  Q 1416.56 571.51 1428.76 576.19
  Q 1428.98 576.27 1429.06 576.84
  L 1336.33 590.48
  A 3.61 3.60 85.9 0 0 1333.25 594.04
  Q 1333.24 615.00 1333.26 636.50
  Q 1333.26 638.20 1333.23 640.01
  Q 1332.87 666.38 1332.94 692.76
  C 1332.95 694.34 1333.25 695.99 1333.25 697.41
  Q 1333.25 725.87 1333.25 754.33
  C 1333.25 768.62 1334.11 783.39 1332.61 797.19
  C 1329.37 827.02 1309.09 852.54 1290.06 875.02
  A 2.79 2.79 0.0 0 0 1290.49 879.03
  L 1367.60 938.39
  A 1.74 1.73 -45.4 0 0 1369.73 938.37
  Q 1370.62 937.66 1371.43 936.77
  Q 1396.68 909.03 1413.51 885.62
  Q 1434.16 856.91 1435.88 822.00
  Q 1435.91 821.50 1436.31 821.21
  A 0.87 0.86 52.3 0 1 1437.52 821.37
  C 1445.93 831.95 1455.96 838.78 1469.51 840.93
  Q 1476.33 842.01 1482.27 841.99
  Q 1505.01 841.91 1527.88 841.58
  C 1545.49 841.33 1558.72 834.38 1568.73 820.84
  Q 1569.91 819.25 1571.20 820.77
  C 1578.49 829.41 1586.03 836.57 1597.19 839.87
  Q 1602.74 841.51 1616.61 841.60
  Q 1635.81 841.73 1650.50 841.62
  C 1664.09 841.52 1678.01 841.52 1692.53 841.38
  Q 1701.87 841.29 1706.49 839.92
  Q 1713.62 837.81 1719.82 832.60
  A 2.54 2.53 -51.2 0 1 1722.62 832.29
  C 1736.19 839.31 1751.89 846.66 1766.45 850.34
  C 1797.62 858.22 1825.82 851.09 1851.68 832.55
  C 1873.05 817.24 1876.73 792.58 1877.18 768.25
  Q 1878.32 706.78 1877.25 645.29
  C 1878.16 646.16 1879.29 646.28 1880.05 647.16
  C 1882.58 650.05 1882.41 657.31 1882.60 661.30
  Q 1885.38 720.29 1883.66 777.56
  Q 1882.87 803.89 1875.37 828.57
  Q 1868.81 850.13 1853.80 864.27
  C 1840.80 876.51 1824.03 884.51 1806.80 890.28
  Q 1769.23 902.85 1731.22 888.56
  Q 1718.53 883.79 1708.09 879.39
  Q 1706.00 878.50 1703.54 879.00
  Q 1693.86 880.99 1684.73 882.66
  Q 1676.86 884.10 1669.37 884.16
  Q 1617.44 884.55 1587.52 883.53
  C 1577.68 883.20 1566.18 879.83 1556.80 874.41
  C 1553.47 872.49 1549.22 872.06 1545.77 873.97
  Q 1530.07 882.64 1511.73 883.40
  Q 1481.38 884.67 1454.13 883.61
  Q 1445.49 883.27 1436.97 880.40
  C 1434.76 879.65 1432.48 880.33 1431.46 882.43
  Q 1427.20 891.28 1423.47 899.52
  Q 1415.26 917.65 1402.35 933.80
  C 1391.42 947.47 1379.93 961.72 1367.07 973.71
  Q 1356.16 983.86 1342.17 979.56
  C 1337.34 978.07 1332.98 975.23 1328.93 972.25
  Q 1296.96 948.70 1268.15 925.12
  Q 1264.83 922.40 1262.28 925.88
  Q 1246.69 947.20 1229.25 967.95
  Q 1224.52 973.58 1220.55 976.74
  C 1209.22 985.75 1196.43 983.15 1185.57 975.03
  Q 1151.10 949.26 1112.54 918.91
  C 1104.32 912.44 1099.76 900.50 1104.07 890.65
  Q 1107.48 882.86 1110.88 875.77
  C 1111.71 874.03 1111.21 871.86 1109.42 871.03
  Q 1077.89 856.38 1066.53 823.91
  Q 1065.79 821.81 1065.28 823.97
  Q 1065.16 824.48 1065.14 824.99
  C 1062.88 881.85 1030.18 929.74 993.03 970.57
  C 985.94 978.36 976.13 983.36 965.51 980.28
  Q 957.42 977.94 951.49 973.27
  Q 917.17 946.25 880.03 918.37
  C 870.93 911.54 865.38 900.00 869.86 888.95
  Q 872.45 882.55 876.03 876.05
  Q 876.85 874.57 876.86 874.06
  Q 876.92 871.84 874.90 872.79
  C 840.84 888.83 801.50 886.19 767.86 870.39
  C 763.97 868.56 760.59 869.34 756.92 871.18
  C 737.01 881.16 716.06 887.30 694.22 880.61
  Q 684.39 877.61 673.46 873.31
  C 669.31 871.68 665.09 872.98 661.25 874.81
  Q 643.55 883.21 624.65 883.60
  Q 600.36 884.11 572.87 883.06
  Q 561.58 882.63 552.68 881.05
  C 523.82 875.94 497.06 861.06 484.10 834.53
  A 2.05 2.05 0.0 0 0 483.15 833.58
  Q 481.38 832.71 480.40 834.49
  C 463.29 865.75 434.88 880.26 400.53 883.69
  Q 387.97 884.94 377.39 884.69
  Q 336.88 883.70 312.74 884.19
  Q 298.49 884.48 288.96 883.60
  C 263.34 881.22 238.01 870.65 218.37 853.07
  C 216.67 851.55 214.27 852.23 214.01 854.55
  C 212.29 869.41 202.06 875.00 188.70 876.49
  Q 127.11 883.37 76.25 887.19
  C 66.53 887.92 53.85 883.34 50.93 873.38
  C 48.96 866.64 48.27 858.88 48.27 851.51
  Q 48.23 803.41 48.24 751.50
  Q 48.24 750.00 48.25 748.50
  Q 48.52 707.21 48.49 670.09
  C 48.49 666.60 48.63 663.19 48.77 659.77
  Q 50.75 611.75 76.28 573.22
  C 90.42 551.89 109.57 535.59 132.80 524.95
  Q 162.85 511.19 192.49 507.52
  Q 214.89 504.75 237.23 513.46
  C 226.66 513.05 217.59 512.74 205.75 513.89
  Q 173.32 517.04 146.73 535.19
  C 123.24 551.23 105.46 576.49 96.73 602.94
  Q 91.51 618.77 91.51 633.39
  Q 91.51 687.05 91.46 734.32
  C 91.46 736.69 91.19 739.06 91.20 741.46
  Q 91.31 790.56 91.23 842.75
  A 2.32 2.32 0.0 0 0 93.77 845.07
  L 208.96 834.23
  A 2.19 2.19 0.0 0 0 210.94 832.05
  Q 211.01 732.29 211.02 655.02
  Q 211.02 653.55 211.88 652.25
  A 2.08 2.08 0.0 0 1 213.52 651.34
  L 223.50 650.97
  Q 227.96 650.81 227.97 655.26
  C 228.06 682.49 228.18 709.36 227.74 736.24
  Q 227.51 750.46 227.88 758.22
  C 229.80 798.26 260.37 833.96 300.62 839.93
  C 317.38 842.42 335.72 841.95 352.76 841.58
  Q 363.47 841.35 374.50 841.30
  C 386.46 841.26 398.63 841.64 410.52 841.79
  Q 419.85 841.91 426.45 840.70
  C 465.66 833.53 490.38 800.62 490.45 761.49
  Q 490.55 702.06 490.29 638.50
  Q 490.29 637.36 490.29 636.25
  Q 490.25 609.04 490.25 580.50
  Q 490.25 578.94 488.72 579.24
  L 390.57 598.43
  A 2.02 2.02 0.0 0 0 388.94 600.42
  L 389.13 639.00
  A 3.41 3.41 0.0 0 1 385.75 642.42
  L 349.95 642.70
  A 2.62 2.61 88.2 0 1 347.32 640.23
  Q 346.69 629.44 346.15 618.82
  Q 346.09 617.55 345.34 614.65
  Q 347.13 602.89 356.50 599.25
  Q 369.24 594.30 383.50 591.51
  A 1.37 1.37 0.0 0 0 384.37 589.40
  Q 377.47 579.22 373.83 567.14
  Q 370.81 557.13 372.83 546.51
  C 375.05 534.77 379.12 524.38 388.44 516.65
  Q 409.33 499.33 436.10 508.42
  C 427.13 512.24 416.89 517.54 414.63 528.07
  C 411.84 541.04 415.43 552.53 427.85 558.38
  Q 434.98 561.73 442.83 560.62
  C 456.02 558.76 466.22 550.66 465.92 536.49
  Q 465.73 527.19 462.37 518.49
  Q 467.61 507.91 471.05 501.51
  Q 471.82 500.08 473.45 499.40
  Q 481.46 496.07 489.17 494.16
  Q 527.45 484.68 567.96 476.69
  Q 568.44 476.59 568.87 476.35
  Q 571.13 475.05 568.58 474.52
  C 556.08 471.94 544.14 469.05 532.34 463.92
  Q 503.07 451.18 489.72 422.93
  Q 480.50 403.42 477.74 384.21
  Q 476.61 376.26 476.69 364.27
  Q 476.82 346.87 476.75 329.01
  Q 476.74 327.65 476.76 326.25
  Q 477.11 298.72 477.00 274.51
  C 476.96 266.44 476.25 257.96 477.30 250.06
  C 479.80 231.16 497.97 227.98 513.37 225.47
  Q 532.68 222.33 551.38 219.72
  Q 559.42 218.59 567.51 218.71
  Q 570.57 218.75 572.92 219.85
  Q 574.51 220.59 572.70 224.27
  L 521.07 232.04
  A 2.08 2.07 -3.2 0 0 519.31 234.00
  C 519.03 240.26 519.61 247.01 519.52 252.70
  C 519.36 262.51 519.78 273.38 519.74 282.10
  Q 519.62 312.04 519.28 341.75
  Q 519.13 355.36 519.98 361.71
  C 523.69 389.37 536.40 412.17 562.22 424.33
  Q 574.75 430.23 588.50 431.21
  C 600.37 432.06 611.11 431.60 622.76 431.27
  Q 636.02 430.89 643.00 429.38
  C 681.17 421.13 699.93 384.33 699.97 347.95
  Q 700.05 274.50 699.95 205.08
  Q 699.94 204.03 699.64 202.98
  Q 699.17 201.38 697.52 201.64
  L 636.10 211.27
  A 2.39 2.39 0.0 0 0 634.08 213.64
  L 634.32 300.98
  A 2.27 2.26 -89.1 0 1 631.99 303.25
  Q 618.64 302.86 604.75 303.02
  C 601.41 303.07 598.03 302.71 594.74 302.84
  Q 590.89 302.98 588.45 301.49
  C 584.15 298.86 584.59 295.05 584.46 289.55
  Q 583.90 265.49 584.72 240.27
  C 584.81 237.46 585.31 234.65 586.78 232.50
  Q 588.51 229.98 588.85 229.20
  Q 592.53 225.15 596.21 219.25
  C 599.82 213.45 605.18 210.43 611.92 208.62
  Q 637.84 201.65 662.60 199.26
  C 665.14 199.02 666.79 197.01 666.77 194.42
  Q 666.58 171.87 667.80 160.78
  Q 669.25 147.70 682.77 144.14
  Q 728.50 132.11 756.00 127.26
  Q 765.25 125.63 774.82 131.17
  Z
  M 625.83 266.21
  A 16.83 16.83 0.0 0 0 609.00 249.38
  A 16.83 16.83 0.0 0 0 592.17 266.21
  A 16.83 16.83 0.0 0 0 609.00 283.04
  A 16.83 16.83 0.0 0 0 625.83 266.21
  Z"
/>
<path fill="#ffffff" d="
  M 777.83 142.00
  L 778.07 237.08
  A 2.14 2.13 89.2 0 0 780.25 239.21
  L 794.81 238.92
  A 2.23 2.23 0.0 0 0 796.99 236.69
  L 797.01 220.99
  A 3.44 3.44 0.0 0 1 799.98 217.58
  Q 829.79 213.53 859.99 209.41
  Q 861.47 209.21 863.59 211.23
  Q 863.66 212.20 863.38 213.08
  L 862.96 236.62
  A 2.16 2.15 0.9 0 0 865.09 238.81
  L 889.62 239.07
  A 2.61 2.61 0.0 0 0 892.26 236.37
  L 891.83 223.08
  A 4.72 4.71 84.8 0 1 895.83 218.27
  L 933.42 212.58
  Q 934.38 211.45 936.25 211.22
  Q 938.13 211.00 938.76 212.50
  Q 938.50 222.80 938.33 233.55
  C 938.29 236.32 938.87 238.50 941.89 238.72
  C 943.97 238.87 948.90 239.75 950.57 238.32
  Q 951.90 237.18 951.78 234.74
  Q 951.46 228.27 951.17 221.97
  Q 951.03 219.00 953.97 218.59
  L 995.74 212.74
  Q 997.75 212.46 997.75 214.49
  L 997.75 235.79
  A 3.38 3.38 0.0 0 0 1000.62 239.13
  Q 1004.24 239.68 1008.06 239.48
  A 3.03 3.03 0.0 0 0 1010.93 236.49
  L 1011.31 205.99
  A 2.66 2.65 84.4 0 1 1013.41 203.43
  L 1068.47 191.64
  L 1091.26 196.64
  Q 1083.53 197.70 1075.75 198.07
  C 1074.27 198.14 1073.10 199.66 1073.08 201.11
  Q 1072.46 246.59 1073.34 290.58
  Q 1073.63 304.76 1072.41 317.79
  Q 1071.34 329.14 1067.89 337.10
  C 1053.28 370.74 1003.29 375.06 977.19 353.85
  A 2.67 2.66 -48.6 0 0 973.59 354.08
  C 972.06 355.67 970.79 357.32 968.91 358.59
  Q 962.51 362.92 955.53 365.17
  C 941.36 369.72 928.12 365.09 917.71 355.11
  Q 916.81 354.24 915.74 353.67
  A 1.63 1.63 0.0 0 0 913.58 354.26
  C 908.20 363.14 898.76 366.30 888.85 366.84
  Q 879.10 367.38 869.83 366.64
  Q 855.90 365.53 847.81 353.91
  A 1.33 1.32 45.4 0 0 845.64 353.89
  Q 840.16 361.53 832.17 364.64
  Q 827.80 366.35 818.66 366.45
  C 807.13 366.59 795.11 366.31 783.34 366.71
  Q 775.63 366.98 765.61 366.53
  C 749.78 365.83 734.16 361.73 724.15 349.79
  C 717.87 342.29 714.06 332.54 713.31 322.44
  Q 712.96 317.72 712.80 312.63
  Q 710.29 230.15 709.05 148.20
  A 2.64 2.64 0.0 0 1 711.11 145.59
  L 774.82 131.17
  Q 775.66 129.68 777.25 129.99
  Q 779.24 130.39 779.01 132.26
  Q 778.90 133.16 778.90 133.22
  Q 778.66 137.71 777.83 142.00
  Z"
/>
<path fill="#032859" d="
  M 777.83 142.00
  Q 782.50 147.35 783.66 154.26
  Q 784.01 156.35 784.44 158.10
  A 2.08 2.07 84.0 0 0 786.37 159.67
  Q 795.80 160.04 804.96 161.11
  C 807.56 161.41 810.98 161.31 813.96 161.01
  Q 818.88 160.52 825.99 160.04
  Q 835.65 159.40 844.01 163.16
  C 834.01 167.50 826.79 175.75 831.87 186.89
  C 836.45 196.93 848.85 201.53 857.53 193.28
  Q 861.18 189.82 863.64 184.53
  Q 870.17 196.07 867.26 208.02
  Q 866.77 210.01 863.59 211.23
  Q 861.47 209.21 859.99 209.41
  Q 829.79 213.53 799.98 217.58
  A 3.44 3.44 0.0 0 0 797.01 220.99
  L 796.99 236.69
  A 2.23 2.23 0.0 0 1 794.81 238.92
  L 780.25 239.21
  A 2.14 2.13 89.2 0 1 778.07 237.08
  L 777.83 142.00
  Z
  M 814.1077 196.9547
  A 17.04 16.42 75.6 0 0 825.7741 176.3665
  A 17.04 16.42 75.6 0 0 805.6323 163.9453
  A 17.04 16.42 75.6 0 0 793.9659 184.5335
  A 17.04 16.42 75.6 0 0 814.1077 196.9547
  Z"
/>
<path fill="#032859" d="
  M 1361.65 149.84
  Q 1352.94 159.64 1344.03 168.27
  Q 1337.47 174.62 1329.34 179.21
  C 1325.22 181.54 1320.46 182.61 1316.00 184.45
  C 1292.75 194.06 1282.13 213.90 1280.45 238.32
  A 0.73 0.72 1.7 0 1 1279.72 239.00
  L 1256.27 239.00
  A 1.00 0.99 89.4 0 1 1255.28 238.02
  L 1254.65 207.58
  Q 1260.89 197.81 1271.51 191.29
  Q 1277.93 187.35 1283.46 184.95
  Q 1291.43 181.49 1295.97 178.74
  C 1305.93 172.71 1314.81 163.90 1322.97 155.33
  C 1329.10 148.88 1334.88 145.89 1343.25 146.22
  Q 1352.47 146.59 1361.65 149.84
  Z"
/>
<path fill="#ffffff" d="
  M 1361.65 149.84
  Q 1388.72 172.10 1413.01 197.49
  Q 1420.65 205.47 1426.82 214.65
  Q 1436.07 228.42 1438.69 244.61
  Q 1437.24 284.66 1436.45 324.39
  Q 1436.23 335.45 1434.79 340.47
  Q 1429.81 357.79 1412.95 366.43
  Q 1385.97 380.25 1356.13 369.30
  Q 1347.16 366.01 1339.01 361.07
  A 2.87 2.86 -48.2 0 0 1335.77 361.26
  C 1330.84 365.07 1325.94 366.43 1319.29 366.52
  Q 1291.47 366.86 1266.85 366.69
  C 1255.98 366.61 1247.82 363.90 1241.34 354.30
  Q 1240.40 352.91 1238.92 353.50
  Q 1237.99 353.88 1237.37 354.73
  Q 1232.30 361.66 1224.85 364.61
  Q 1220.34 366.39 1211.83 366.54
  Q 1198.50 366.76 1182.81 366.76
  Q 1178.45 366.76 1174.72 366.39
  C 1165.84 365.52 1160.58 361.21 1155.34 354.65
  A 1.38 1.38 0.0 0 0 1153.09 354.78
  Q 1152.46 355.80 1152.39 357.04
  C 1151.45 374.70 1142.88 390.73 1131.84 404.49
  Q 1122.60 416.00 1111.29 428.06
  Q 1109.58 429.88 1107.62 428.35
  Q 1083.20 409.38 1059.49 390.90
  C 1057.92 389.68 1058.90 387.94 1060.02 386.72
  C 1071.51 374.20 1081.86 359.62 1085.11 343.44
  Q 1086.33 337.33 1086.31 328.02
  Q 1086.19 267.92 1086.26 208.39
  Q 1086.27 206.07 1088.56 205.74
  L 1145.55 197.37
  Q 1150.78 195.36 1155.00 195.76
  Q 1158.57 196.10 1157.25 200.07
  Q 1153.02 205.14 1152.84 212.01
  C 1152.74 215.47 1152.64 218.88 1152.97 222.32
  Q 1153.63 229.09 1153.76 235.85
  C 1153.81 238.32 1155.75 239.78 1158.20 239.51
  Q 1172.11 237.92 1185.39 239.57
  C 1187.38 239.81 1189.44 238.75 1189.47 236.51
  Q 1189.58 228.32 1189.83 219.76
  A 2.60 2.60 0.0 0 1 1192.09 217.25
  Q 1220.12 213.53 1248.50 209.75
  Q 1249.85 209.56 1249.34 208.86
  Q 1251.37 207.58 1254.65 207.58
  L 1255.28 238.02
  A 1.00 0.99 89.4 0 0 1256.27 239.00
  L 1279.72 239.00
  A 0.73 0.72 1.7 0 0 1280.45 238.32
  C 1282.13 213.90 1292.75 194.06 1316.00 184.45
  C 1320.46 182.61 1325.22 181.54 1329.34 179.21
  Q 1337.47 174.62 1344.03 168.27
  Q 1352.94 159.64 1361.65 149.84
  Z
  M 1344.89 231.50
  A 9.77 9.77 0.0 0 0 1335.12 221.73
  A 9.77 9.77 0.0 0 0 1325.35 231.50
  A 9.77 9.77 0.0 0 0 1335.12 241.27
  A 9.77 9.77 0.0 0 0 1344.89 231.50
  Z
  M 1391.53 245.83
  A 9.91 9.91 0.0 0 0 1381.62 235.92
  A 9.91 9.91 0.0 0 0 1371.71 245.83
  A 9.91 9.91 0.0 0 0 1381.62 255.74
  A 9.91 9.91 0.0 0 0 1391.53 245.83
  Z"
/>
<path fill="#032859" d="
  M 1217.55 162.68
  C 1209.63 167.87 1198.00 178.44 1206.74 188.64
  Q 1212.06 194.85 1219.30 196.63
  C 1228.49 198.90 1235.52 190.02 1239.54 182.78
  Q 1241.18 192.38 1242.87 201.95
  C 1243.24 204.09 1243.51 204.81 1245.50 205.94
  Q 1247.72 207.21 1249.34 208.86
  Q 1249.85 209.56 1248.50 209.75
  Q 1220.12 213.53 1192.09 217.25
  A 2.60 2.60 0.0 0 0 1189.83 219.76
  Q 1189.58 228.32 1189.47 236.51
  C 1189.44 238.75 1187.38 239.81 1185.39 239.57
  Q 1172.11 237.92 1158.20 239.51
  C 1155.75 239.78 1153.81 238.32 1153.76 235.85
  Q 1153.63 229.09 1152.97 222.32
  C 1152.64 218.88 1152.74 215.47 1152.84 212.01
  Q 1153.02 205.14 1157.25 200.07
  Q 1157.77 206.13 1158.40 213.17
  Q 1158.58 215.11 1161.02 215.93
  Q 1161.34 216.04 1161.66 215.95
  Q 1163.99 215.25 1163.47 212.87
  C 1161.26 202.69 1161.14 190.76 1165.69 181.72
  C 1175.56 162.13 1197.06 154.62 1217.55 162.68
  Z"
/>
<path fill="#ffffff" d="
  M 1217.55 162.68
  Q 1236.48 163.52 1239.54 182.78
  C 1235.52 190.02 1228.49 198.90 1219.30 196.63
  Q 1212.06 194.85 1206.74 188.64
  C 1198.00 178.44 1209.63 167.87 1217.55 162.68
  Z"
/>
<path fill="#ffffff" d="
  M 844.01 163.16
  Q 858.06 162.92 862.21 175.00
  Q 863.58 178.99 863.64 184.53
  Q 861.18 189.82 857.53 193.28
  C 848.85 201.53 836.45 196.93 831.87 186.89
  C 826.79 175.75 834.01 167.50 844.01 163.16
  Z"
/>
<ellipse fill="#ffffff" cx="0.00" cy="0.00" transform="translate(809.87,180.45) rotate(75.6)" rx="17.04" ry="16.42"/>
<path fill="#032859" d="
  M 1068.47 191.64
  L 1013.41 203.43
  A 2.66 2.65 84.4 0 0 1011.31 205.99
  L 1010.93 236.49
  A 3.03 3.03 0.0 0 1 1008.06 239.48
  Q 1004.24 239.68 1000.62 239.13
  A 3.38 3.38 0.0 0 1 997.75 235.79
  L 997.75 214.49
  Q 997.75 212.46 995.74 212.74
  L 953.97 218.59
  Q 951.03 219.00 951.17 221.97
  Q 951.46 228.27 951.78 234.74
  Q 951.90 237.18 950.57 238.32
  C 948.90 239.75 943.97 238.87 941.89 238.72
  C 938.87 238.50 938.29 236.32 938.33 233.55
  Q 938.50 222.80 938.76 212.50
  Q 950.50 212.18 962.01 209.27
  Q 974.44 206.12 986.33 201.31
  Q 1004.02 194.13 1023.01 191.85
  Q 1045.37 189.16 1068.47 191.64
  Z"
/>
<path fill="#ffffff" d="
  M 572.70 224.27
  Q 578.75 222.84 582.26 222.32
  Q 583.95 222.06 585.98 222.20
  A 1.58 1.55 67.7 0 1 586.91 222.60
  C 589.08 224.61 588.07 226.89 588.85 229.20
  Q 588.51 229.98 586.78 232.50
  C 585.31 234.65 584.81 237.46 584.72 240.27
  Q 583.90 265.49 584.46 289.55
  C 584.59 295.05 584.15 298.86 588.45 301.49
  Q 590.89 302.98 594.74 302.84
  C 598.03 302.71 601.41 303.07 604.75 303.02
  Q 618.64 302.86 631.99 303.25
  A 2.27 2.26 -89.1 0 0 634.32 300.98
  L 634.08 213.64
  A 2.39 2.39 0.0 0 1 636.10 211.27
  L 697.52 201.64
  Q 699.17 201.38 699.64 202.98
  Q 699.94 204.03 699.95 205.08
  Q 700.05 274.50 699.97 347.95
  C 699.93 384.33 681.17 421.13 643.00 429.38
  Q 636.02 430.89 622.76 431.27
  C 611.11 431.60 600.37 432.06 588.50 431.21
  Q 574.75 430.23 562.22 424.33
  C 536.40 412.17 523.69 389.37 519.98 361.71
  Q 519.13 355.36 519.28 341.75
  Q 519.62 312.04 519.74 282.10
  C 519.78 273.38 519.36 262.51 519.52 252.70
  C 519.61 247.01 519.03 240.26 519.31 234.00
  A 2.08 2.07 -3.2 0 1 521.07 232.04
  L 572.70 224.27
  Z"
/>
<path fill="#032859" d="
  M 933.42 212.58
  L 895.83 218.27
  A 4.72 4.71 84.8 0 0 891.83 223.08
  L 892.26 236.37
  A 2.61 2.61 0.0 0 1 889.62 239.07
  L 865.09 238.81
  A 2.16 2.15 0.9 0 1 862.96 236.62
  L 863.38 213.08
  Q 869.91 215.51 873.50 214.74
  Q 893.96 210.37 912.75 208.76
  Q 923.17 207.86 933.42 212.58
  Z"
/>
<circle fill="#032859" cx="1335.12" cy="231.50" r="9.77"/>
<circle fill="#032859" cx="1381.62" cy="245.83" r="9.91"/>
<circle fill="#ffffff" cx="609.00" cy="266.21" r="16.83"/>
<path fill="#ffffff" d="
  M 619.30 473.54
  C 620.28 476.16 617.68 478.36 615.68 480.19
  Q 614.65 481.14 614.27 484.77
  Q 614.24 561.15 614.32 637.75
  C 614.33 642.43 617.45 643.62 621.43 643.19
  Q 633.28 641.93 646.53 643.07
  Q 651.37 643.48 651.29 638.94
  Q 651.07 626.04 650.77 614.29
  A 3.19 3.18 -4.7 0 1 653.52 611.05
  L 716.04 602.40
  Q 719.90 601.29 724.70 601.79
  A 1.19 1.18 2.2 0 1 725.76 602.93
  Q 725.80 603.89 724.97 605.24
  L 724.21 605.52
  Q 723.71 605.69 723.69 606.22
  L 722.68 641.32
  A 1.39 1.39 0.0 0 0 724.07 642.75
  L 741.88 642.75
  A 1.88 1.87 90.0 0 0 743.75 640.87
  L 743.75 614.70
  A 3.52 3.52 0.0 0 1 746.79 611.21
  L 813.26 601.97
  A 1.80 1.80 0.0 0 1 815.31 603.77
  L 814.94 640.21
  A 2.32 2.32 0.0 0 0 817.21 642.56
  L 834.05 642.93
  A 2.47 2.47 0.0 0 0 836.58 640.45
  L 836.30 589.87
  A 2.51 2.50 85.0 0 1 838.37 587.39
  L 925.43 572.01
  Q 926.63 570.16 928.73 569.76
  A 2.34 2.34 0.0 0 1 931.22 570.93
  C 933.26 574.64 932.58 580.94 932.32 585.06
  Q 932.07 600.01 932.29 615.00
  Q 932.60 636.63 932.52 655.50
  Q 932.51 656.58 932.53 657.74
  Q 932.88 676.29 932.79 696.75
  Q 932.79 697.86 932.81 699.00
  Q 933.15 716.60 932.97 736.31
  Q 932.82 752.95 930.94 768.97
  C 929.37 782.43 925.22 795.62 917.85 806.84
  C 901.99 830.96 874.34 840.22 845.94 841.37
  Q 808.68 842.89 781.24 819.58
  A 1.45 1.44 -49.1 0 0 779.22 819.73
  C 754.47 847.93 713.88 848.97 688.27 821.35
  A 2.18 2.18 0.0 0 0 684.86 821.62
  Q 672.51 839.99 649.59 841.12
  Q 633.17 841.93 608.45 841.77
  Q 589.59 841.65 572.28 838.85
  Q 565.21 837.70 557.41 834.34
  C 540.83 827.19 528.19 814.69 520.00 798.29
  C 514.48 787.24 513.18 773.50 512.94 761.32
  Q 510.40 632.72 506.99 504.22
  Q 506.93 501.97 507.06 499.80
  A 1.58 1.58 0.0 0 1 508.29 498.35
  L 619.30 473.54
  Z"
/>
<path fill="#032859" d="
  M 716.04 602.40
  L 653.52 611.05
  A 3.19 3.18 -4.7 0 0 650.77 614.29
  Q 651.07 626.04 651.29 638.94
  Q 651.37 643.48 646.53 643.07
  Q 633.28 641.93 621.43 643.19
  C 617.45 643.62 614.33 642.43 614.32 637.75
  Q 614.24 561.15 614.27 484.77
  Q 619.07 483.34 619.22 487.00
  Q 619.81 501.09 619.75 535.08
  Q 619.74 541.50 619.99 549.91
  C 620.19 556.54 619.78 563.23 619.76 569.70
  C 619.74 578.12 619.81 586.74 619.55 595.35
  Q 619.36 601.34 620.71 607.57
  A 1.40 1.38 -11.1 0 0 622.32 608.64
  Q 656.30 602.56 693.05 597.51
  C 701.23 596.39 709.61 596.31 716.04 602.40
  Z"
/>
<path fill="#032859" d="
  M 1759.55 503.38
  Q 1758.86 505.24 1757.94 506.19
  Q 1743.29 521.19 1716.47 546.76
  Q 1713.22 549.85 1710.33 550.56
  C 1682.17 557.43 1658.03 571.44 1644.70 597.67
  C 1637.86 611.12 1634.51 626.53 1633.71 641.59
  Q 1633.66 642.50 1632.75 642.50
  L 1595.98 642.50
  Q 1594.97 642.50 1594.99 641.49
  L 1595.36 611.99
  Q 1602.91 609.96 1607.32 603.80
  C 1611.34 598.20 1614.50 591.09 1618.73 585.19
  Q 1621.22 581.72 1624.76 578.35
  Q 1642.82 561.19 1665.56 553.63
  C 1669.58 552.29 1674.08 551.53 1677.63 549.12
  C 1692.59 538.97 1708.39 522.61 1723.22 508.52
  C 1729.83 502.24 1736.51 498.72 1745.24 499.52
  Q 1752.05 500.15 1759.55 503.38
  Z"
/>
<path fill="#ffffff" d="
  M 1877.25 645.29
  Q 1878.32 706.78 1877.18 768.25
  C 1876.73 792.58 1873.05 817.24 1851.68 832.55
  C 1825.82 851.09 1797.62 858.22 1766.45 850.34
  C 1751.89 846.66 1736.19 839.31 1722.62 832.29
  A 2.54 2.53 -51.2 0 0 1719.82 832.60
  Q 1713.62 837.81 1706.49 839.92
  Q 1701.87 841.29 1692.53 841.38
  C 1678.01 841.52 1664.09 841.52 1650.50 841.62
  Q 1635.81 841.73 1616.61 841.60
  Q 1602.74 841.51 1597.19 839.87
  C 1586.03 836.57 1578.49 829.41 1571.20 820.77
  Q 1569.91 819.25 1568.73 820.84
  C 1558.72 834.38 1545.49 841.33 1527.88 841.58
  Q 1505.01 841.91 1482.27 841.99
  Q 1476.33 842.01 1469.51 840.93
  C 1455.96 838.78 1445.93 831.95 1437.52 821.37
  A 0.87 0.86 52.3 0 0 1436.31 821.21
  Q 1435.91 821.50 1435.88 822.00
  Q 1434.16 856.91 1413.51 885.62
  Q 1396.68 909.03 1371.43 936.77
  Q 1370.62 937.66 1369.73 938.37
  A 1.74 1.73 -45.4 0 1 1367.60 938.39
  L 1290.49 879.03
  A 2.79 2.79 0.0 0 1 1290.06 875.02
  C 1309.09 852.54 1329.37 827.02 1332.61 797.19
  C 1334.11 783.39 1333.25 768.62 1333.25 754.33
  Q 1333.25 725.87 1333.25 697.41
  C 1333.25 695.99 1332.95 694.34 1332.94 692.76
  Q 1332.87 666.38 1333.23 640.01
  Q 1333.26 638.20 1333.26 636.50
  Q 1333.24 615.00 1333.25 594.04
  A 3.61 3.60 85.9 0 1 1336.33 590.48
  L 1429.06 576.84
  L 1434.10 576.21
  A 1.72 1.71 -2.0 0 1 1436.03 578.01
  Q 1435.72 583.52 1437.90 587.89
  Q 1436.64 627.20 1436.64 637.75
  C 1436.64 640.53 1439.26 642.83 1442.00 642.81
  Q 1467.56 642.63 1490.61 642.43
  A 2.16 2.16 0.0 0 0 1492.75 640.27
  L 1492.75 611.99
  A 2.13 2.12 -4.1 0 1 1494.58 609.89
  L 1585.84 597.02
  Q 1589.17 593.99 1593.24 595.76
  Q 1594.72 596.40 1594.79 598.50
  Q 1595.02 604.89 1595.36 611.99
  L 1594.99 641.49
  Q 1594.97 642.50 1595.98 642.50
  L 1632.75 642.50
  Q 1633.66 642.50 1633.71 641.59
  C 1634.51 626.53 1637.86 611.12 1644.70 597.67
  C 1658.03 571.44 1682.17 557.43 1710.33 550.56
  Q 1713.22 549.85 1716.47 546.76
  Q 1743.29 521.19 1757.94 506.19
  Q 1758.86 505.24 1759.55 503.38
  Q 1760.54 502.12 1761.23 502.77
  Q 1803.45 542.92 1844.51 584.24
  Q 1859.90 599.73 1868.98 616.77
  Q 1875.65 629.30 1877.25 645.29
  Z
  M 1734.20 630.92
  A 15.53 15.53 0.0 0 0 1718.67 615.39
  A 15.53 15.53 0.0 0 0 1703.14 630.92
  A 15.53 15.53 0.0 0 0 1718.67 646.45
  A 15.53 15.53 0.0 0 0 1734.20 630.92
  Z
  M 1806.21 653.29
  A 15.54 15.54 0.0 0 0 1790.67 637.75
  A 15.54 15.54 0.0 0 0 1775.13 653.29
  A 15.54 15.54 0.0 0 0 1790.67 668.83
  A 15.54 15.54 0.0 0 0 1806.21 653.29
  Z"
/>
<path fill="#ffffff" d="
  M 462.37 518.49
  Q 465.73 527.19 465.92 536.49
  C 466.22 550.66 456.02 558.76 442.83 560.62
  Q 434.98 561.73 427.85 558.38
  C 415.43 552.53 411.84 541.04 414.63 528.07
  C 416.89 517.54 427.13 512.24 436.10 508.42
  C 438.09 509.06 439.72 509.45 442.01 509.45
  C 450.16 509.48 456.14 513.84 462.37 518.49
  Z"
/>
<path fill="#ffffff" d="
  M 237.23 513.46
  C 279.17 521.97 312.92 544.28 332.70 582.05
  Q 339.78 595.56 345.34 614.65
  Q 346.09 617.55 346.15 618.82
  Q 346.69 629.44 347.32 640.23
  A 2.62 2.61 88.2 0 0 349.95 642.70
  L 385.75 642.42
  A 3.41 3.41 0.0 0 0 389.13 639.00
  L 388.94 600.42
  A 2.02 2.02 0.0 0 1 390.57 598.43
  L 488.72 579.24
  Q 490.25 578.94 490.25 580.50
  Q 490.25 609.04 490.29 636.25
  Q 490.29 637.36 490.29 638.50
  Q 490.55 702.06 490.45 761.49
  C 490.38 800.62 465.66 833.53 426.45 840.70
  Q 419.85 841.91 410.52 841.79
  C 398.63 841.64 386.46 841.26 374.50 841.30
  Q 363.47 841.35 352.76 841.58
  C 335.72 841.95 317.38 842.42 300.62 839.93
  C 260.37 833.96 229.80 798.26 227.88 758.22
  Q 227.51 750.46 227.74 736.24
  C 228.18 709.36 228.06 682.49 227.97 655.26
  Q 227.96 650.81 223.50 650.97
  L 213.52 651.34
  A 2.08 2.08 0.0 0 0 211.88 652.25
  Q 211.02 653.55 211.02 655.02
  Q 211.01 732.29 210.94 832.05
  A 2.19 2.19 0.0 0 1 208.96 834.23
  L 93.77 845.07
  A 2.32 2.32 0.0 0 1 91.23 842.75
  Q 91.31 790.56 91.20 741.46
  C 91.19 739.06 91.46 736.69 91.46 734.32
  Q 91.51 687.05 91.51 633.39
  Q 91.51 618.77 96.73 602.94
  C 105.46 576.49 123.24 551.23 146.73 535.19
  Q 173.32 517.04 205.75 513.89
  C 217.59 512.74 226.66 513.05 237.23 513.46
  Z"
/>
<path fill="#032859" d="
  M 1540.34 524.24
  C 1525.44 529.05 1513.68 537.74 1515.85 554.81
  C 1517.53 568.06 1528.46 577.95 1541.86 577.78
  C 1556.87 577.58 1563.27 568.16 1568.40 555.53
  Q 1575.22 571.15 1568.17 586.56
  C 1567.24 588.58 1567.17 591.16 1570.00 591.46
  Q 1575.71 592.07 1581.50 592.50
  Q 1585.16 592.77 1585.84 597.02
  L 1494.58 609.89
  A 2.13 2.12 -4.1 0 0 1492.75 611.99
  L 1492.75 640.27
  A 2.16 2.16 0.0 0 1 1490.61 642.43
  Q 1467.56 642.63 1442.00 642.81
  C 1439.26 642.83 1436.64 640.53 1436.64 637.75
  Q 1436.64 627.20 1437.90 587.89
  Q 1445.44 608.89 1443.94 632.17
  Q 1443.78 634.66 1445.78 636.13
  L 1446.13 636.39
  Q 1448.29 637.98 1448.63 635.31
  C 1449.97 624.60 1451.96 615.56 1461.97 610.07
  Q 1468.51 606.49 1479.45 604.72
  C 1482.70 604.20 1483.21 600.97 1481.63 598.52
  C 1472.48 584.35 1471.42 568.46 1476.60 552.66
  C 1480.66 540.25 1488.63 531.83 1500.76 526.99
  C 1513.56 521.87 1527.21 519.73 1540.34 524.24
  Z"
/>
<path fill="#ffffff" d="
  M 1540.34 524.24
  C 1549.79 525.56 1559.56 530.01 1564.19 538.58
  Q 1568.13 545.85 1568.40 555.53
  C 1563.27 568.16 1556.87 577.58 1541.86 577.78
  C 1528.46 577.95 1517.53 568.06 1515.85 554.81
  C 1513.68 537.74 1525.44 529.05 1540.34 524.24
  Z"
/>
<path fill="#ffffff" d="
  M 1205.45 539.33
  Q 1239.79 544.41 1262.91 568.09
  Q 1278.72 584.29 1288.69 607.34
  Q 1289.60 649.46 1289.53 681.50
  Q 1289.52 683.74 1289.53 686.00
  Q 1289.89 760.50 1289.76 803.75
  Q 1289.72 816.21 1289.16 827.76
  C 1288.69 837.44 1287.03 846.37 1283.23 855.39
  C 1270.11 886.56 1248.08 913.26 1225.38 938.72
  Q 1223.82 940.46 1221.97 939.05
  Q 1184.08 909.93 1145.05 879.98
  A 1.31 1.30 36.6 0 1 1144.78 878.19
  Q 1156.03 862.17 1168.34 844.70
  C 1169.20 843.47 1168.87 841.69 1167.21 841.39
  C 1145.03 837.40 1123.94 825.32 1111.94 806.27
  C 1105.06 795.33 1102.52 781.24 1102.38 768.25
  C 1102.27 758.50 1102.05 749.12 1102.03 739.59
  Q 1101.99 725.09 1101.86 711.50
  Q 1101.54 676.95 1102.25 631.46
  Q 1102.45 618.52 1103.93 611.60
  Q 1107.26 595.96 1116.93 581.94
  C 1135.83 554.54 1163.17 539.81 1196.48 539.54
  Q 1200.98 539.50 1205.45 539.33
  Z
  M 1211.49 646.95
  A 15.41 15.41 0.0 0 0 1196.08 631.54
  A 15.41 15.41 0.0 0 0 1180.67 646.95
  A 15.41 15.41 0.0 0 0 1196.08 662.36
  A 15.41 15.41 0.0 0 0 1211.49 646.95
  Z"
/>
<path fill="#032859" d="
  M 925.43 572.01
  L 838.37 587.39
  A 2.51 2.50 85.0 0 0 836.30 589.87
  L 836.58 640.45
  A 2.47 2.47 0.0 0 1 834.05 642.93
  L 817.21 642.56
  A 2.32 2.32 0.0 0 1 814.94 640.21
  L 815.31 603.77
  A 1.80 1.80 0.0 0 0 813.26 601.97
  L 746.79 611.21
  A 3.52 3.52 0.0 0 0 743.75 614.70
  L 743.75 640.87
  A 1.88 1.87 -90.0 0 1 741.88 642.75
  L 724.07 642.75
  A 1.39 1.39 0.0 0 1 722.68 641.32
  L 723.69 606.22
  Q 723.71 605.69 724.21 605.52
  L 724.97 605.24
  Q 725.21 605.37 725.38 605.35
  Q 756.71 601.51 788.04 597.62
  C 792.87 597.02 795.45 596.20 799.01 592.82
  Q 806.35 585.88 817.26 583.58
  Q 862.80 573.98 908.75 566.57
  Q 910.16 566.34 914.99 566.41
  Q 921.50 566.50 925.43 572.01
  Z"
/>
<path fill="#ffffff" d="
  M 1058.51 589.20
  Q 1058.50 700.74 1058.50 812.25
  Q 1058.50 826.25 1057.71 832.21
  C 1055.76 847.04 1049.73 858.98 1041.46 872.88
  Q 1020.56 907.95 992.02 937.94
  A 1.99 1.98 -49.4 0 1 989.38 938.15
  L 912.47 879.28
  A 3.26 3.25 39.6 0 1 912.02 874.52
  C 930.55 853.83 949.31 829.80 953.55 802.27
  Q 954.56 795.72 954.55 782.06
  Q 954.50 704.45 954.43 626.88
  C 954.42 616.21 954.07 605.18 954.32 594.45
  A 4.09 4.08 86.7 0 1 957.82 590.51
  L 1055.10 576.36
  Q 1057.73 575.71 1058.34 578.10
  Q 1059.15 581.29 1059.00 584.50
  Q 1058.90 586.67 1058.51 589.20
  Z"
/>
<circle fill="#032859" cx="1718.67" cy="630.92" r="15.53"/>
<circle fill="#032859" cx="1196.08" cy="646.95" r="15.41"/>
<circle fill="#032859" cx="1790.67" cy="653.29" r="15.54"/>
</svg>
