<?xml version="1.0" encoding="UTF-8" standalone="no"?>
<!DOCTYPE svg PUBLIC "-//W3C//DTD SVG 1.1//EN" "http://www.w3.org/Graphics/SVG/1.1/DTD/svg11.dtd">
<svg xmlns="http://www.w3.org/2000/svg" version="1.1" viewBox="0.00 0.00 1920.00 1080.00">
<g stroke-width="2.00" fill="none" stroke-linecap="butt">
<path stroke="#873575" vector-effect="non-scaling-stroke" d="
  M 342.99 398.12
  Q 310.67 362.37 277.67 327.58
  Q 260.14 309.11 241.52 294.76
  C 230.63 286.38 216.28 278.71 201.99 282.93
  C 192.19 285.82 184.37 293.63 179.84 302.64
  C 175.30 311.67 171.80 322.55 169.57 332.80
  Q 136.26 485.55 105.84 625.99
  Q 101.36 646.68 102.88 664.79
  Q 103.57 672.99 108.24 678.84
  C 120.63 694.37 151.50 677.91 164.82 671.49
  Q 253.41 628.78 341.47 584.99
  C 341.91 584.77 342.56 584.74 343.05 584.62"
/>
<path stroke="#482b93" vector-effect="non-scaling-stroke" d="
  M 343.05 584.62
  Q 414.43 619.98 486.02 654.91
  Q 513.63 668.38 538.84 679.98
  Q 552.33 686.20 565.06 685.31
  C 582.09 684.13 585.27 666.56 584.24 652.45
  Q 583.08 636.74 579.93 622.25
  Q 548.80 479.13 517.69 336.00
  C 513.25 315.57 504.58 283.18 478.44 281.58
  C 467.12 280.89 455.64 285.87 446.82 292.60
  Q 429.11 306.12 412.38 323.14
  Q 384.50 351.51 342.99 398.12"
/>
<path stroke="#c14ee1" vector-effect="non-scaling-stroke" d="
  M 343.05 584.62
  Q 342.93 584.56 342.88 584.32
  Q 342.78 583.92 342.41 583.74
  Q 306.88 566.59 274.87 550.54
  Q 262.67 544.43 255.69 535.02
  Q 249.63 526.83 250.76 515.96
  Q 252.01 503.96 257.90 494.06
  Q 260.75 489.26 270.06 478.94
  Q 306.58 438.44 342.99 398.12"
/>
<path stroke="#878993" vector-effect="non-scaling-stroke" d="
  M 1077.12 643.53
  Q 1116.62 662.67 1160.76 656.52
  Q 1180.29 653.80 1199.81 644.81
  Q 1235.70 628.27 1257.81 597.86
  Q 1281.30 565.55 1283.36 528.21
  Q 1286.09 478.53 1254.72 438.86
  Q 1230.06 407.69 1192.74 393.14
  C 1142.21 373.45 1084.17 383.60 1043.37 419.70
  C 1004.82 453.80 987.29 504.18 1000.94 554.36
  C 1011.65 593.78 1040.80 625.92 1077.12 643.53"
/>
<path stroke="#878993" vector-effect="non-scaling-stroke" d="
  M 1466.58 581.27
  C 1464.94 595.78 1448.63 601.40 1436.31 602.35
  C 1401.78 605.04 1368.81 591.22 1341.77 569.65
  A 0.77 0.77 0.0 0 0 1340.70 569.75
  L 1304.29 612.78
  A 0.70 0.69 -49.4 0 0 1304.36 613.76
  Q 1335.18 641.12 1374.51 651.37
  Q 1418.28 662.77 1461.09 654.45
  C 1493.49 648.14 1520.75 629.08 1530.32 596.44
  C 1535.48 578.87 1535.29 558.13 1527.75 541.63
  Q 1520.29 525.29 1502.86 515.12
  Q 1485.18 504.79 1465.38 499.32
  Q 1446.44 494.09 1417.26 487.50
  Q 1408.64 485.56 1398.77 481.70
  C 1390.32 478.39 1383.62 473.22 1382.99 463.48
  C 1382.15 450.38 1392.07 442.42 1404.08 439.86
  Q 1411.55 438.27 1421.16 438.77
  C 1447.03 440.11 1470.85 451.26 1491.83 466.50
  A 0.90 0.90 0.0 0 0 1493.10 466.29
  L 1526.12 420.09
  A 0.63 0.63 0.0 0 0 1526.01 419.23
  C 1493.04 391.67 1450.46 380.93 1407.60 383.69
  C 1385.80 385.10 1362.70 391.99 1345.89 405.41
  C 1322.65 423.97 1312.99 451.39 1316.83 480.59
  C 1319.86 503.65 1333.86 519.98 1354.42 530.17
  C 1376.61 541.16 1399.93 546.67 1423.91 551.93
  Q 1433.02 553.93 1443.32 557.08
  C 1455.74 560.88 1468.37 565.49 1466.58 581.27"
/>
<path stroke="#878993" vector-effect="non-scaling-stroke" d="
  M 888.21 500.92
  A 0.34 0.34 0.0 0 1 888.85 501.09
  L 888.86 652.94
  A 0.34 0.34 0.0 0 0 889.20 653.28
  L 955.16 653.28
  A 0.34 0.34 0.0 0 0 955.50 652.94
  L 955.50 388.13
  A 0.34 0.34 0.0 0 0 955.16 387.79
  L 889.12 387.77
  A 0.34 0.34 0.0 0 0 888.82 387.94
  L 812.23 525.52
  A 0.34 0.34 0.0 0 1 811.63 525.52
  L 735.03 387.96
  A 0.34 0.34 0.0 0 0 734.73 387.79
  L 668.61 387.76
  A 0.34 0.34 0.0 0 0 668.27 388.10
  L 668.27 652.94
  A 0.34 0.34 0.0 0 0 668.61 653.28
  L 734.63 653.27
  A 0.34 0.34 0.0 0 0 734.97 652.93
  L 734.96 500.98
  A 0.34 0.34 0.0 0 1 735.60 500.81
  L 811.64 637.42
  A 0.34 0.34 0.0 0 0 812.24 637.42
  L 888.21 500.92"
/>
<path stroke="#878993" vector-effect="non-scaling-stroke" d="
  M 1638.00 488.26
  A 0.45 0.45 0.0 0 1 1637.55 487.81
  L 1637.55 388.24
  A 0.45 0.45 0.0 0 0 1637.10 387.79
  L 1571.45 387.79
  A 0.45 0.45 0.0 0 0 1571.00 388.24
  L 1571.00 652.83
  A 0.45 0.45 0.0 0 0 1571.45 653.28
  L 1637.10 653.28
  A 0.45 0.45 0.0 0 0 1637.55 652.83
  L 1637.55 547.71
  A 0.45 0.45 0.0 0 1 1638.00 547.26
  L 1746.30 547.26
  A 0.45 0.45 0.0 0 1 1746.75 547.71
  L 1746.75 652.83
  A 0.45 0.45 0.0 0 0 1747.20 653.28
  L 1812.96 653.27
  A 0.45 0.45 0.0 0 0 1813.41 652.82
  L 1813.41 388.24
  A 0.45 0.45 0.0 0 0 1812.96 387.79
  L 1747.20 387.77
  A 0.45 0.45 0.0 0 0 1746.75 388.22
  L 1746.75 487.81
  A 0.45 0.45 0.0 0 1 1746.30 488.26
  L 1638.00 488.26"
/>
<path stroke="#878993" vector-effect="non-scaling-stroke" d="
  M 1169.82 591.47
  C 1203.59 574.65 1222.87 537.68 1212.64 500.77
  C 1201.06 458.94 1156.81 431.84 1114.52 447.99
  Q 1086.34 458.75 1072.08 487.37
  Q 1061.19 509.23 1065.46 533.81
  C 1071.08 566.14 1098.92 593.98 1131.66 597.78
  C 1135.23 598.20 1138.86 597.94 1142.48 598.01
  C 1151.79 598.20 1161.83 595.46 1169.82 591.47"
/>
</g>
<path fill="#0e1226" d="
  M 1920.00 81.00
  L 1920.00 1000.99
  L 0.00 1001.00
  L 0.00 81.00
  L 1920.00 81.00
  Z
  M 342.99 398.12
  Q 310.67 362.37 277.67 327.58
  Q 260.14 309.11 241.52 294.76
  C 230.63 286.38 216.28 278.71 201.99 282.93
  C 192.19 285.82 184.37 293.63 179.84 302.64
  C 175.30 311.67 171.80 322.55 169.57 332.80
  Q 136.26 485.55 105.84 625.99
  Q 101.36 646.68 102.88 664.79
  Q 103.57 672.99 108.24 678.84
  C 120.63 694.37 151.50 677.91 164.82 671.49
  Q 253.41 628.78 341.47 584.99
  C 341.91 584.77 342.56 584.74 343.05 584.62
  Q 414.43 619.98 486.02 654.91
  Q 513.63 668.38 538.84 679.98
  Q 552.33 686.20 565.06 685.31
  C 582.09 684.13 585.27 666.56 584.24 652.45
  Q 583.08 636.74 579.93 622.25
  Q 548.80 479.13 517.69 336.00
  C 513.25 315.57 504.58 283.18 478.44 281.58
  C 467.12 280.89 455.64 285.87 446.82 292.60
  Q 429.11 306.12 412.38 323.14
  Q 384.50 351.51 342.99 398.12
  Z
  M 1077.12 643.53
  Q 1116.62 662.67 1160.76 656.52
  Q 1180.29 653.80 1199.81 644.81
  Q 1235.70 628.27 1257.81 597.86
  Q 1281.30 565.55 1283.36 528.21
  Q 1286.09 478.53 1254.72 438.86
  Q 1230.06 407.69 1192.74 393.14
  C 1142.21 373.45 1084.17 383.60 1043.37 419.70
  C 1004.82 453.80 987.29 504.18 1000.94 554.36
  C 1011.65 593.78 1040.80 625.92 1077.12 643.53
  Z
  M 1466.58 581.27
  C 1464.94 595.78 1448.63 601.40 1436.31 602.35
  C 1401.78 605.04 1368.81 591.22 1341.77 569.65
  A 0.77 0.77 0.0 0 0 1340.70 569.75
  L 1304.29 612.78
  A 0.70 0.69 -49.4 0 0 1304.36 613.76
  Q 1335.18 641.12 1374.51 651.37
  Q 1418.28 662.77 1461.09 654.45
  C 1493.49 648.14 1520.75 629.08 1530.32 596.44
  C 1535.48 578.87 1535.29 558.13 1527.75 541.63
  Q 1520.29 525.29 1502.86 515.12
  Q 1485.18 504.79 1465.38 499.32
  Q 1446.44 494.09 1417.26 487.50
  Q 1408.64 485.56 1398.77 481.70
  C 1390.32 478.39 1383.62 473.22 1382.99 463.48
  C 1382.15 450.38 1392.07 442.42 1404.08 439.86
  Q 1411.55 438.27 1421.16 438.77
  C 1447.03 440.11 1470.85 451.26 1491.83 466.50
  A 0.90 0.90 0.0 0 0 1493.10 466.29
  L 1526.12 420.09
  A 0.63 0.63 0.0 0 0 1526.01 419.23
  C 1493.04 391.67 1450.46 380.93 1407.60 383.69
  C 1385.80 385.10 1362.70 391.99 1345.89 405.41
  C 1322.65 423.97 1312.99 451.39 1316.83 480.59
  C 1319.86 503.65 1333.86 519.98 1354.42 530.17
  C 1376.61 541.16 1399.93 546.67 1423.91 551.93
  Q 1433.02 553.93 1443.32 557.08
  C 1455.74 560.88 1468.37 565.49 1466.58 581.27
  Z
  M 888.21 500.92
  A 0.34 0.34 0.0 0 1 888.85 501.09
  L 888.86 652.94
  A 0.34 0.34 0.0 0 0 889.20 653.28
  L 955.16 653.28
  A 0.34 0.34 0.0 0 0 955.50 652.94
  L 955.50 388.13
  A 0.34 0.34 0.0 0 0 955.16 387.79
  L 889.12 387.77
  A 0.34 0.34 0.0 0 0 888.82 387.94
  L 812.23 525.52
  A 0.34 0.34 0.0 0 1 811.63 525.52
  L 735.03 387.96
  A 0.34 0.34 0.0 0 0 734.73 387.79
  L 668.61 387.76
  A 0.34 0.34 0.0 0 0 668.27 388.10
  L 668.27 652.94
  A 0.34 0.34 0.0 0 0 668.61 653.28
  L 734.63 653.27
  A 0.34 0.34 0.0 0 0 734.97 652.93
  L 734.96 500.98
  A 0.34 0.34 0.0 0 1 735.60 500.81
  L 811.64 637.42
  A 0.34 0.34 0.0 0 0 812.24 637.42
  L 888.21 500.92
  Z
  M 1638.00 488.26
  A 0.45 0.45 0.0 0 1 1637.55 487.81
  L 1637.55 388.24
  A 0.45 0.45 0.0 0 0 1637.10 387.79
  L 1571.45 387.79
  A 0.45 0.45 0.0 0 0 1571.00 388.24
  L 1571.00 652.83
  A 0.45 0.45 0.0 0 0 1571.45 653.28
  L 1637.10 653.28
  A 0.45 0.45 0.0 0 0 1637.55 652.83
  L 1637.55 547.71
  A 0.45 0.45 0.0 0 1 1638.00 547.26
  L 1746.30 547.26
  A 0.45 0.45 0.0 0 1 1746.75 547.71
  L 1746.75 652.83
  A 0.45 0.45 0.0 0 0 1747.20 653.28
  L 1812.96 653.27
  A 0.45 0.45 0.0 0 0 1813.41 652.82
  L 1813.41 388.24
  A 0.45 0.45 0.0 0 0 1812.96 387.79
  L 1747.20 387.77
  A 0.45 0.45 0.0 0 0 1746.75 388.22
  L 1746.75 487.81
  A 0.45 0.45 0.0 0 1 1746.30 488.26
  L 1638.00 488.26
  Z"
/>
<path fill="#8244ff" d="
  M 343.05 584.62
  Q 342.93 584.56 342.88 584.32
  Q 342.78 583.92 342.41 583.74
  Q 306.88 566.59 274.87 550.54
  Q 262.67 544.43 255.69 535.02
  Q 249.63 526.83 250.76 515.96
  Q 252.01 503.96 257.90 494.06
  Q 260.75 489.26 270.06 478.94
  Q 306.58 438.44 342.99 398.12
  Q 384.50 351.51 412.38 323.14
  Q 429.11 306.12 446.82 292.60
  C 455.64 285.87 467.12 280.89 478.44 281.58
  C 504.58 283.18 513.25 315.57 517.69 336.00
  Q 548.80 479.13 579.93 622.25
  Q 583.08 636.74 584.24 652.45
  C 585.27 666.56 582.09 684.13 565.06 685.31
  Q 552.33 686.20 538.84 679.98
  Q 513.63 668.38 486.02 654.91
  Q 414.43 619.98 343.05 584.62
  Z"
/>
<path fill="#ff57c3" d="
  M 342.99 398.12
  Q 306.58 438.44 270.06 478.94
  Q 260.75 489.26 257.90 494.06
  Q 252.01 503.96 250.76 515.96
  Q 249.63 526.83 255.69 535.02
  Q 262.67 544.43 274.87 550.54
  Q 306.88 566.59 342.41 583.74
  Q 342.78 583.92 342.88 584.32
  Q 342.93 584.56 343.05 584.62
  C 342.56 584.74 341.91 584.77 341.47 584.99
  Q 253.41 628.78 164.82 671.49
  C 151.50 677.91 120.63 694.37 108.24 678.84
  Q 103.57 672.99 102.88 664.79
  Q 101.36 646.68 105.84 625.99
  Q 136.26 485.55 169.57 332.80
  C 171.80 322.55 175.30 311.67 179.84 302.64
  C 184.37 293.63 192.19 285.82 201.99 282.93
  C 216.28 278.71 230.63 286.38 241.52 294.76
  Q 260.14 309.11 277.67 327.58
  Q 310.67 362.37 342.99 398.12
  Z"
/>
<path fill="#ffffff" d="
  M 1077.12 643.53
  C 1040.80 625.92 1011.65 593.78 1000.94 554.36
  C 987.29 504.18 1004.82 453.80 1043.37 419.70
  C 1084.17 383.60 1142.21 373.45 1192.74 393.14
  Q 1230.06 407.69 1254.72 438.86
  Q 1286.09 478.53 1283.36 528.21
  Q 1281.30 565.55 1257.81 597.86
  Q 1235.70 628.27 1199.81 644.81
  Q 1180.29 653.80 1160.76 656.52
  Q 1116.62 662.67 1077.12 643.53
  Z
  M 1169.82 591.47
  C 1203.59 574.65 1222.87 537.68 1212.64 500.77
  C 1201.06 458.94 1156.81 431.84 1114.52 447.99
  Q 1086.34 458.75 1072.08 487.37
  Q 1061.19 509.23 1065.46 533.81
  C 1071.08 566.14 1098.92 593.98 1131.66 597.78
  C 1135.23 598.20 1138.86 597.94 1142.48 598.01
  C 1151.79 598.20 1161.83 595.46 1169.82 591.47
  Z"
/>
<path fill="#ffffff" d="
  M 1466.58 581.27
  C 1468.37 565.49 1455.74 560.88 1443.32 557.08
  Q 1433.02 553.93 1423.91 551.93
  C 1399.93 546.67 1376.61 541.16 1354.42 530.17
  C 1333.86 519.98 1319.86 503.65 1316.83 480.59
  C 1312.99 451.39 1322.65 423.97 1345.89 405.41
  C 1362.70 391.99 1385.80 385.10 1407.60 383.69
  C 1450.46 380.93 1493.04 391.67 1526.01 419.23
  A 0.63 0.63 0.0 0 1 1526.12 420.09
  L 1493.10 466.29
  A 0.90 0.90 0.0 0 1 1491.83 466.50
  C 1470.85 451.26 1447.03 440.11 1421.16 438.77
  Q 1411.55 438.27 1404.08 439.86
  C 1392.07 442.42 1382.15 450.38 1382.99 463.48
  C 1383.62 473.22 1390.32 478.39 1398.77 481.70
  Q 1408.64 485.56 1417.26 487.50
  Q 1446.44 494.09 1465.38 499.32
  Q 1485.18 504.79 1502.86 515.12
  Q 1520.29 525.29 1527.75 541.63
  C 1535.29 558.13 1535.48 578.87 1530.32 596.44
  C 1520.75 629.08 1493.49 648.14 1461.09 654.45
  Q 1418.28 662.77 1374.51 651.37
  Q 1335.18 641.12 1304.36 613.76
  A 0.70 0.69 -49.4 0 1 1304.29 612.78
  L 1340.70 569.75
  A 0.77 0.77 0.0 0 1 1341.77 569.65
  C 1368.81 591.22 1401.78 605.04 1436.31 602.35
  C 1448.63 601.40 1464.94 595.78 1466.58 581.27
  Z"
/>
<path fill="#ffffff" d="
  M 888.21 500.92
  L 812.24 637.42
  A 0.34 0.34 0.0 0 1 811.64 637.42
  L 735.60 500.81
  A 0.34 0.34 0.0 0 0 734.96 500.98
  L 734.97 652.93
  A 0.34 0.34 0.0 0 1 734.63 653.27
  L 668.61 653.28
  A 0.34 0.34 0.0 0 1 668.27 652.94
  L 668.27 388.10
  A 0.34 0.34 0.0 0 1 668.61 387.76
  L 734.73 387.79
  A 0.34 0.34 0.0 0 1 735.03 387.96
  L 811.63 525.52
  A 0.34 0.34 0.0 0 0 812.23 525.52
  L 888.82 387.94
  A 0.34 0.34 0.0 0 1 889.12 387.77
  L 955.16 387.79
  A 0.34 0.34 0.0 0 1 955.50 388.13
  L 955.50 652.94
  A 0.34 0.34 0.0 0 1 955.16 653.28
  L 889.20 653.28
  A 0.34 0.34 0.0 0 1 888.86 652.94
  L 888.85 501.09
  A 0.34 0.34 0.0 0 0 888.21 500.92
  Z"
/>
<path fill="#ffffff" d="
  M 1638.00 488.26
  L 1746.30 488.26
  A 0.45 0.45 0.0 0 0 1746.75 487.81
  L 1746.75 388.22
  A 0.45 0.45 0.0 0 1 1747.20 387.77
  L 1812.96 387.79
  A 0.45 0.45 0.0 0 1 1813.41 388.24
  L 1813.41 652.82
  A 0.45 0.45 0.0 0 1 1812.96 653.27
  L 1747.20 653.28
  A 0.45 0.45 0.0 0 1 1746.75 652.83
  L 1746.75 547.71
  A 0.45 0.45 0.0 0 0 1746.30 547.26
  L 1638.00 547.26
  A 0.45 0.45 0.0 0 0 1637.55 547.71
  L 1637.55 652.83
  A 0.45 0.45 0.0 0 1 1637.10 653.28
  L 1571.45 653.28
  A 0.45 0.45 0.0 0 1 1571.00 652.83
  L 1571.00 388.24
  A 0.45 0.45 0.0 0 1 1571.45 387.79
  L 1637.10 387.79
  A 0.45 0.45 0.0 0 1 1637.55 388.24
  L 1637.55 487.81
  A 0.45 0.45 0.0 0 0 1638.00 488.26
  Z"
/>
<path fill="#0e1226" d="
  M 1212.64 500.77
  C 1222.87 537.68 1203.59 574.65 1169.82 591.47
  C 1161.83 595.46 1151.79 598.20 1142.48 598.01
  C 1138.86 597.94 1135.23 598.20 1131.66 597.78
  C 1098.92 593.98 1071.08 566.14 1065.46 533.81
  Q 1061.19 509.23 1072.08 487.37
  Q 1086.34 458.75 1114.52 447.99
  C 1156.81 431.84 1201.06 458.94 1212.64 500.77
  Z"
/>
</svg>
