<?xml version="1.0" encoding="UTF-8" standalone="no"?>
<!DOCTYPE svg PUBLIC "-//W3C//DTD SVG 1.1//EN" "http://www.w3.org/Graphics/SVG/1.1/DTD/svg11.dtd">
<svg xmlns="http://www.w3.org/2000/svg" version="1.1" viewBox="0.00 0.00 150.00 90.00">
<path fill="#eee724" d="
  M 18.06 52.71
  Q 9.87 53.16 1.63 53.32
  Q 1.54 53.32 1.51 53.24
  Q 1.48 53.19 1.48 53.14
  Q 1.47 52.99 1.61 52.94
  Q 9.05 50.05 16.35 46.96
  Q 16.58 46.86 16.72 46.66
  A 0.41 0.41 0.0 0 0 16.39 46.01
  Q 14.22 45.95 12.36 45.41
  Q 11.48 45.16 12.34 44.84
  L 24.72 40.21
  Q 25.52 39.91 24.74 39.56
  L 22.29 38.45
  Q 21.58 38.13 22.34 37.94
  Q 32.45 35.40 42.14 32.69
  Q 48.62 30.87 53.38 35.69
  Q 58.03 40.40 56.32 46.70
  C 54.66 52.81 50.04 54.67 44.09 55.52
  Q 36.13 56.66 27.68 58.51
  Q 25.04 59.09 27.05 57.28
  L 28.33 56.13
  Q 29.19 55.35 28.03 55.43
  L 14.99 56.31
  Q 14.05 56.37 14.80 55.80
  L 18.24 53.22
  Q 18.98 52.66 18.06 52.71
  Z
  M 51.86 42.74
  Q 51.53 41.99 51.66 41.24
  Q 51.76 40.62 52.38 40.49
  L 53.22 40.32
  Q 53.95 40.16 53.56 39.52
  C 46.65 28.39 31.29 37.74 37.88 49.14
  Q 38.08 49.50 38.48 49.55
  Q 39.05 49.62 39.47 49.22
  Q 39.80 48.89 40.16 49.18
  Q 41.01 49.85 40.67 50.96
  A 0.95 0.94 -74.4 0 0 41.34 52.16
  Q 52.30 54.85 54.51 44.20
  Q 54.65 43.56 54.00 43.47
  L 52.56 43.26
  Q 52.07 43.19 51.86 42.74
  Z"
/>
<path fill="#f7f7f8" d="
  M 139.47 47.05
  Q 137.03 48.51 134.40 47.22
  Q 133.95 47.00 133.49 47.19
  Q 131.63 47.96 129.43 47.69
  A 2.74 2.73 -89.1 0 1 127.06 45.24
  Q 126.68 41.31 127.01 37.26
  Q 127.06 36.62 127.69 36.62
  L 128.38 36.62
  A 0.63 0.62 -90.0 0 1 129.00 37.25
  L 129.02 44.46
  A 1.21 1.21 0.0 0 0 130.01 45.65
  Q 130.96 45.83 131.97 45.51
  Q 132.81 45.24 132.84 44.35
  L 132.88 42.53
  A 0.83 0.82 84.6 0 1 133.52 41.75
  Q 134.74 41.47 134.88 42.63
  Q 135.02 43.80 134.92 45.02
  A 0.42 0.42 0.0 0 0 135.34 45.48
  L 137.71 45.53
  Q 138.72 45.54 138.73 44.54
  L 138.76 37.41
  A 0.79 0.78 -83.0 0 1 139.72 36.65
  L 140.09 36.73
  Q 140.76 36.89 140.76 37.59
  L 140.73 44.74
  Q 140.73 45.51 141.49 45.51
  L 144.08 45.52
  A 0.88 0.87 -89.0 0 0 144.95 44.67
  L 145.01 42.14
  Q 145.03 41.31 145.86 41.43
  L 146.33 41.50
  A 0.82 0.81 87.9 0 1 147.01 42.14
  Q 147.94 46.73 144.53 47.63
  Q 142.07 48.28 139.92 47.05
  Q 139.69 46.92 139.47 47.05
  Z"
/>
<ellipse fill="#eee724" cx="0.00" cy="0.00" transform="translate(44.70,38.77) rotate(49.1)" rx="1.14" ry="0.86"/>
<path fill="#f7f7f8" d="
  M 92.87 39.02
  Q 92.82 39.68 92.19 39.90
  A 0.72 0.70 -34.0 0 1 91.54 39.78
  Q 90.74 39.13 91.16 38.32
  Q 91.29 38.07 91.57 38.01
  Q 92.28 37.85 92.94 38.17
  Q 93.24 38.31 93.04 38.58
  Q 92.89 38.77 92.87 39.02
  Z"
/>
<path fill="#f7f7f8" d="
  M 93.62 38.63
  Q 93.55 38.31 93.84 38.17
  Q 94.29 37.96 94.82 37.93
  Q 95.38 37.89 95.65 38.39
  Q 95.85 38.76 95.71 39.21
  Q 95.51 39.83 94.86 39.76
  Q 93.86 39.64 93.62 38.63
  Z"
/>
<path fill="#f7f7f8" d="
  M 122.92 45.41
  A 0.85 0.84 -32.0 0 0 123.28 43.87
  L 119.96 41.68
  A 0.76 0.75 -52.8 0 1 119.81 40.56
  L 120.06 40.28
  Q 120.51 39.76 121.11 40.08
  C 123.34 41.25 127.00 43.34 124.93 46.40
  C 123.69 48.25 121.05 47.79 119.17 47.72
  A 0.58 0.58 0.0 0 1 118.62 47.07
  L 118.76 46.00
  Q 118.83 45.40 119.43 45.46
  Q 121.30 45.63 122.92 45.41
  Z"
/>
<path fill="#f7f7f8" d="
  M 81.94 47.14
  C 78.78 48.81 76.47 46.71 76.57 43.45
  Q 76.59 42.63 75.86 43.02
  L 75.52 43.20
  A 0.99 0.99 0.0 0 0 75.00 44.07
  L 75.00 51.01
  Q 75.00 51.94 74.08 51.82
  Q 73.93 51.79 73.77 51.78
  Q 72.81 51.72 72.86 50.76
  Q 73.04 47.21 72.99 44.07
  C 72.96 42.10 74.81 40.72 76.71 40.86
  C 79.32 41.05 83.65 40.21 83.38 44.52
  Q 83.32 45.50 84.31 45.51
  L 86.21 45.52
  A 1.16 1.15 88.4 0 0 87.37 44.29
  L 87.27 42.84
  Q 87.21 41.92 88.13 41.77
  L 88.58 41.70
  A 0.51 0.50 -6.3 0 1 89.16 42.16
  L 89.36 44.78
  Q 89.40 45.40 90.01 45.50
  Q 91.58 45.77 93.09 45.49
  A 0.83 0.82 83.6 0 0 93.76 44.64
  L 93.63 42.13
  A 0.79 0.79 0.0 0 1 94.37 41.30
  L 94.78 41.28
  Q 95.66 41.24 95.75 42.12
  Q 95.98 44.38 95.39 45.95
  C 94.45 48.46 90.28 48.01 88.47 47.12
  A 0.63 0.63 0.0 0 0 87.89 47.12
  Q 85.22 48.50 82.63 47.14
  Q 82.28 46.96 81.94 47.14
  Z
  M 81.3312 44.0726
  A 0.99 0.99 0.0 0 0 80.3944 43.0321
  L 79.6154 42.9913
  A 0.99 0.99 0.0 0 0 78.5750 43.9281
  L 78.5488 44.4274
  A 0.99 0.99 0.0 0 0 79.4856 45.4679
  L 80.2646 45.5087
  A 0.99 0.99 0.0 0 0 81.3050 44.5719
  L 81.3312 44.0726
  Z"
/>
<path fill="#f7f7f8" d="
  M 115.37 45.04
  Q 115.63 43.74 115.41 42.38
  Q 115.26 41.49 116.16 41.35
  L 116.72 41.27
  A 0.70 0.70 0.0 0 1 117.52 41.98
  L 117.44 47.17
  Q 117.43 47.58 117.04 47.66
  Q 114.88 48.12 113.07 47.22
  Q 112.65 47.01 112.23 47.24
  Q 111.05 47.90 109.73 47.76
  Q 109.05 47.69 108.69 48.29
  C 106.39 52.09 101.21 51.12 99.67 47.29
  Q 98.91 45.41 99.40 42.97
  Q 99.54 42.28 100.24 42.26
  Q 100.54 42.25 100.80 42.40
  Q 101.25 42.65 101.20 43.18
  Q 101.03 44.80 101.48 46.24
  C 102.28 48.81 105.41 49.77 106.92 47.26
  C 107.83 45.75 107.37 43.97 107.64 42.29
  Q 107.74 41.69 108.36 41.69
  Q 108.68 41.68 108.97 41.79
  A 0.81 0.80 -83.4 0 1 109.49 42.45
  L 109.77 44.74
  Q 109.87 45.54 110.66 45.64
  L 111.05 45.69
  A 0.35 0.35 0.0 0 0 111.45 45.36
  L 111.58 42.41
  A 0.68 0.67 81.8 0 1 112.03 41.80
  Q 112.48 41.65 112.92 41.79
  A 0.85 0.85 0.0 0 1 113.51 42.64
  C 113.46 43.63 113.32 45.12 114.48 45.54
  Q 115.22 45.81 115.37 45.04
  Z"
/>
<path fill="#eee724" d="
  M 42.76 41.62
  Q 43.47 42.10 43.15 42.83
  A 0.78 0.77 -49.8 0 1 41.79 42.95
  Q 41.54 42.58 41.58 42.17
  A 0.76 0.75 20.0 0 1 42.76 41.62
  Z"
/>
<ellipse fill="#eee724" cx="0.00" cy="0.00" transform="translate(48.32,48.49) rotate(24.1)" rx="1.34" ry="1.09"/>
<path fill="#f7f7f8" d="
  M 86.04 51.12
  Q 85.76 50.37 85.95 49.66
  A 0.84 0.84 0.0 0 1 87.48 49.46
  Q 87.79 50.00 87.64 50.77
  A 0.60 0.59 9.7 0 1 86.97 51.24
  Q 86.70 51.20 86.45 51.30
  A 0.32 0.32 0.0 0 1 86.04 51.12
  Z"
/>
<path fill="#f7f7f8" d="
  M 90.74 50.20
  Q 90.53 51.55 89.22 51.28
  Q 88.75 51.18 88.72 50.70
  Q 88.69 50.04 88.91 49.49
  Q 89.15 48.90 89.72 49.16
  L 90.32 49.42
  Q 90.83 49.64 90.74 50.20
  Z"
/>
<path fill="#f7f7f8" d="
  M 132.11 49.11
  A 0.80 0.79 76.6 0 1 133.21 49.79
  L 133.27 50.52
  Q 133.32 51.11 132.74 51.26
  Q 131.78 51.51 131.49 50.58
  Q 131.15 49.52 132.11 49.11
  Z"
/>
<path fill="#f7f7f8" d="
  M 134.23 50.00
  Q 134.10 49.78 134.15 49.56
  Q 134.29 49.06 134.80 49.13
  L 135.82 49.27
  Q 136.31 49.33 136.30 49.82
  L 136.27 50.74
  Q 136.26 51.24 135.76 51.22
  L 134.80 51.17
  Q 134.22 51.13 134.20 50.56
  Q 134.19 50.28 134.23 50.00
  Z"
/>
<path fill="#f7f7f8" d="
  M 142.78 49.21
  Q 143.13 49.10 143.51 49.15
  A 0.72 0.71 87.7 0 1 144.13 49.73
  Q 144.23 50.27 144.05 50.76
  A 0.83 0.83 0.0 0 1 142.50 50.79
  Q 142.32 50.37 142.29 49.90
  Q 142.26 49.36 142.78 49.21
  Z"
/>
<path fill="#f7f7f8" d="
  M 147.75 50.30
  Q 147.94 50.07 147.91 49.79
  Q 147.81 48.85 148.32 49.64
  Q 148.70 50.23 148.34 50.89
  Q 148.19 51.15 147.89 51.11
  Q 147.05 50.99 146.20 51.16
  A 1.01 1.01 0.0 0 1 145.03 50.43
  Q 144.72 49.30 145.89 49.11
  Q 147.00 48.94 147.16 50.14
  Q 147.26 50.91 147.75 50.30
  Z"
/>
<path fill="#f7f7f8" d="
  M 144.18 53.92
  A 0.94 0.94 0.0 0 1 143.84 52.61
  Q 144.45 51.61 145.31 52.08
  A 1.06 1.06 0.0 0 1 145.31 53.94
  Q 144.75 54.25 144.18 53.92
  Z"
/>
</svg>
