<?xml version="1.0" encoding="UTF-8" standalone="no"?>
<!DOCTYPE svg PUBLIC "-//W3C//DTD SVG 1.1//EN" "http://www.w3.org/Graphics/SVG/1.1/DTD/svg11.dtd">
<svg xmlns="http://www.w3.org/2000/svg" version="1.1" viewBox="0.00 0.00 150.00 90.00">
<path fill="#334756" d="
  M 20.65 37.93
  Q 19.63 37.83 18.52 38.00
  Q 17.04 38.23 16.94 36.87
  Q 16.85 35.48 16.89 33.97
  Q 16.92 32.82 15.77 32.79
  L 12.88 32.73
  Q 11.97 32.72 11.97 33.62
  L 12.03 42.75
  Q 12.03 43.28 11.50 43.28
  L 6.78 43.32
  Q 6.25 43.32 6.25 42.78
  L 6.25 16.65
  Q 6.25 16.05 6.85 16.06
  L 11.45 16.11
  Q 12.04 16.11 12.03 16.70
  L 11.97 26.80
  Q 11.96 27.11 12.27 27.12
  Q 14.53 27.22 16.72 27.09
  Q 16.85 27.09 16.85 26.96
  L 16.88 22.51
  Q 16.88 21.64 17.74 21.68
  L 21.51 21.86
  Q 22.59 21.92 22.58 23.00
  L 22.52 26.65
  A 0.85 0.85 0.0 0 1 21.60 27.49
  L 18.52 27.25
  A 1.12 1.12 0.0 0 0 17.34 28.11
  Q 16.93 29.83 17.41 31.55
  A 1.05 1.05 0.0 0 0 18.33 32.31
  L 21.39 32.57
  A 1.19 1.19 0.0 0 1 22.48 33.85
  Q 22.38 35.32 22.77 36.66
  Q 22.92 37.19 23.46 37.27
  L 26.20 37.67
  Q 26.86 37.76 27.24 38.32
  Q 28.59 40.27 27.58 42.37
  A 1.14 1.13 -78.7 0 1 26.63 43.01
  L 23.03 43.25
  Q 22.26 43.31 22.25 42.53
  L 22.20 39.60
  Q 22.17 38.07 20.65 37.93
  Z"
/>
<path fill="#334756" d="
  M 23.41 16.04
  L 26.76 16.10
  A 1.25 1.25 0.0 0 1 27.97 17.56
  L 27.37 21.17
  A 1.25 1.25 0.0 0 1 26.00 22.21
  L 23.52 21.92
  A 1.25 1.25 0.0 0 1 22.42 20.78
  L 22.14 17.39
  A 1.25 1.25 0.0 0 1 23.41 16.04
  Z"
/>
<path fill="#334756" d="
  M 38.10 38.72
  Q 36.48 38.30 35.17 37.44
  Q 34.80 37.20 34.70 36.78
  Q 33.01 29.99 34.56 23.17
  Q 34.68 22.64 35.12 22.32
  Q 36.15 21.58 37.46 21.44
  Q 38.72 21.30 38.77 20.03
  Q 38.84 18.22 39.76 16.87
  Q 40.08 16.40 40.66 16.34
  Q 45.43 15.83 49.64 16.40
  A 0.94 0.93 -89.6 0 1 50.43 17.21
  L 50.83 20.52
  Q 50.89 20.95 51.31 21.07
  Q 51.75 21.19 52.20 21.08
  A 2.34 2.20 81.8 0 1 54.89 23.22
  Q 55.45 30.94 55.37 37.85
  A 0.64 0.63 -88.3 0 1 54.71 38.48
  L 51.22 38.30
  Q 50.72 38.28 50.73 38.78
  L 50.81 41.50
  Q 50.84 42.84 49.50 42.84
  L 41.00 42.84
  Q 40.48 42.84 40.07 42.52
  Q 38.52 41.33 38.63 39.46
  Q 38.66 38.87 38.10 38.72
  Z
  M 49.9284 25.0989
  A 3.28 3.28 0.0 0 0 46.6541 21.8132
  L 42.9741 21.8068
  A 3.28 3.28 0.0 0 0 39.6884 25.0811
  L 39.6716 34.6811
  A 3.28 3.28 0.0 0 0 42.9459 37.9668
  L 46.6259 37.9732
  A 3.28 3.28 0.0 0 0 49.9116 34.6989
  L 49.9284 25.0989
  Z"
/>
<path fill="#334756" d="
  M 77.91 28.56
  Q 77.85 30.00 77.76 31.53
  Q 77.70 32.70 76.53 32.72
  L 73.33 32.79
  Q 72.60 32.80 72.54 32.07
  L 72.24 28.61
  Q 72.20 28.17 71.86 27.90
  Q 70.47 26.80 68.37 27.35
  Q 67.79 27.51 67.74 28.10
  Q 67.15 34.58 67.36 41.87
  Q 67.40 43.28 65.99 43.27
  L 63.35 43.25
  Q 61.78 43.24 61.77 41.67
  L 61.56 17.37
  Q 61.55 16.16 62.75 16.15
  L 66.38 16.09
  Q 67.17 16.08 67.24 16.88
  L 67.55 20.83
  Q 67.60 21.56 68.33 21.64
  L 71.01 21.94
  A 1.33 1.32 89.4 0 1 72.18 23.10
  C 72.40 25.01 72.62 27.70 75.38 27.43
  Q 78.25 27.15 77.78 22.98
  Q 77.62 21.52 79.08 21.69
  L 81.58 21.97
  A 1.27 1.27 0.0 0 0 83.00 20.67
  L 82.87 16.74
  Q 82.85 16.09 83.50 16.09
  L 87.97 16.09
  Q 88.69 16.09 88.66 16.80
  Q 88.19 29.78 88.98 42.69
  Q 89.03 43.48 88.24 43.46
  L 83.75 43.32
  Q 82.95 43.30 82.95 42.50
  L 82.94 28.50
  A 1.25 1.25 0.0 0 0 81.72 27.25
  Q 80.03 27.21 78.72 27.48
  Q 77.96 27.63 77.91 28.56
  Z"
/>
<path fill="#334756" d="
  M 99.08 43.24
  L 95.70 43.11
  A 0.83 0.83 0.0 0 1 94.90 42.29
  L 94.60 22.31
  A 0.83 0.83 0.0 0 1 95.45 21.47
  L 98.88 21.53
  A 0.83 0.83 0.0 0 0 99.72 20.73
  L 99.84 16.89
  A 0.83 0.83 0.0 0 1 100.66 16.09
  L 110.14 16.06
  A 0.83 0.83 0.0 0 1 110.97 16.91
  L 110.89 20.71
  A 0.83 0.83 0.0 0 0 111.67 21.55
  L 115.44 21.77
  A 0.83 0.83 0.0 0 1 116.22 22.59
  L 116.25 42.62
  A 0.83 0.83 0.0 0 1 115.33 43.44
  L 111.41 43.03
  A 0.83 0.83 0.0 0 1 110.67 42.26
  L 110.48 38.98
  A 0.83 0.83 0.0 0 0 109.70 38.19
  L 101.06 37.66
  A 0.83 0.83 0.0 0 0 100.18 38.44
  L 99.94 42.46
  A 0.83 0.83 0.0 0 1 99.08 43.24
  Z
  M 110.6635 23.5709
  A 1.51 1.51 0.0 0 0 109.1509 22.0636
  L 101.7709 22.0764
  A 1.51 1.51 0.0 0 0 100.2636 23.5891
  L 100.2765 30.9891
  A 1.51 1.51 0.0 0 0 101.7891 32.4964
  L 109.1691 32.4836
  A 1.51 1.51 0.0 0 0 110.6764 30.9709
  L 110.6635 23.5709
  Z"
/>
<path fill="#334756" d="
  M 137.66 37.98
  L 133.54 38.02
  A 0.56 0.56 0.0 0 1 132.97 37.46
  L 132.97 33.35
  A 0.56 0.56 0.0 0 0 132.42 32.79
  L 128.44 32.71
  A 0.56 0.56 0.0 0 0 127.87 33.29
  L 128.18 42.75
  A 0.56 0.56 0.0 0 1 127.61 43.33
  L 122.95 43.24
  A 0.56 0.56 0.0 0 1 122.40 42.68
  L 122.22 16.59
  A 0.56 0.56 0.0 0 1 122.79 16.03
  L 127.41 16.11
  A 0.56 0.56 0.0 0 1 127.96 16.68
  L 127.83 26.66
  A 0.56 0.56 0.0 0 0 128.40 27.23
  L 132.38 27.13
  A 0.56 0.56 0.0 0 0 132.92 26.58
  L 132.94 22.26
  A 0.56 0.56 0.0 0 1 133.50 21.70
  L 137.66 21.72
  A 0.56 0.56 0.0 0 0 138.22 21.16
  L 138.20 16.64
  A 0.56 0.56 0.0 0 1 138.76 16.08
  L 143.21 16.07
  A 0.56 0.56 0.0 0 1 143.77 16.63
  L 143.75 21.65
  A 0.56 0.56 0.0 0 1 143.19 22.21
  L 139.06 22.17
  A 0.56 0.56 0.0 0 0 138.49 22.75
  L 138.57 26.79
  A 0.56 0.56 0.0 0 1 138.01 27.36
  L 133.80 27.37
  A 0.56 0.56 0.0 0 0 133.25 27.92
  L 133.21 31.77
  A 0.56 0.56 0.0 0 0 133.77 32.34
  L 137.98 32.38
  A 0.56 0.56 0.0 0 1 138.54 32.95
  L 138.52 37.14
  A 0.56 0.56 0.0 0 0 139.08 37.70
  L 143.20 37.72
  A 0.56 0.56 0.0 0 1 143.76 38.28
  L 143.78 42.79
  A 0.56 0.56 0.0 0 1 143.22 43.35
  L 138.76 43.33
  A 0.56 0.56 0.0 0 1 138.20 42.77
  L 138.23 38.54
  A 0.56 0.56 0.0 0 0 137.66 37.98
  Z"
/>
<path fill="#ff4c29" d="
  M 36.69 63.90
  L 32.71 63.71
  Q 31.76 63.66 31.75 62.71
  L 31.73 59.60
  A 1.80 1.79 -0.5 0 1 33.52 57.79
  L 42.21 57.73
  A 0.49 0.49 0.0 0 1 42.70 58.21
  L 43.00 73.04
  A 0.89 0.88 -0.3 0 1 42.10 73.94
  L 28.08 73.86
  Q 26.80 73.85 26.62 72.58
  L 26.25 69.98
  Q 26.15 69.30 25.48 69.23
  L 23.31 69.01
  A 1.62 1.62 0.0 0 1 21.86 67.52
  Q 21.32 60.53 21.58 54.90
  Q 21.75 51.44 25.13 52.54
  Q 26.49 52.98 26.37 51.56
  Q 26.24 50.00 26.90 48.60
  Q 27.13 48.11 27.67 48.01
  Q 34.84 46.74 41.88 47.99
  Q 43.04 48.20 43.01 49.38
  L 42.94 51.99
  Q 42.91 53.38 41.51 53.34
  L 29.50 52.96
  Q 26.87 52.87 26.93 55.50
  L 27.21 67.94
  A 0.72 0.72 0.0 0 0 27.94 68.64
  L 37.03 68.51
  Q 37.56 68.50 37.52 67.97
  L 37.25 64.44
  Q 37.21 63.93 36.69 63.90
  Z"
/>
<path fill="#ff4c29" d="
  M 66.00 68.54
  L 69.93 68.59
  Q 70.52 68.60 70.52 69.18
  L 70.54 73.20
  A 0.74 0.73 -89.6 0 1 69.80 73.94
  L 65.63 73.89
  Q 64.88 73.88 64.90 73.13
  L 65.00 69.73
  A 0.79 0.79 0.0 0 0 64.20 68.92
  L 55.25 68.96
  Q 54.48 68.97 54.50 69.75
  L 54.62 73.17
  Q 54.65 73.99 53.83 73.98
  L 49.91 73.90
  Q 49.07 73.88 49.08 73.04
  L 49.13 48.75
  A 1.25 1.25 0.0 0 1 50.39 47.51
  Q 56.97 47.57 63.76 47.61
  Q 66.36 47.62 65.46 51.36
  Q 65.14 52.68 66.50 52.62
  L 69.09 52.50
  A 1.35 1.35 0.0 0 1 70.50 53.84
  L 70.52 62.89
  Q 70.53 63.56 69.86 63.55
  L 66.00 63.52
  Q 65.26 63.51 65.25 64.25
  L 65.23 67.75
  Q 65.23 68.53 66.00 68.54
  Z
  M 64.9426 54.2141
  A 1.26 1.26 0.0 0 0 63.6739 52.9629
  L 55.8741 53.0174
  A 1.26 1.26 0.0 0 0 54.6229 54.2861
  L 54.6774 62.0859
  A 1.26 1.26 0.0 0 0 55.9461 63.3371
  L 63.7459 63.2826
  A 1.26 1.26 0.0 0 0 64.9971 62.0139
  L 64.9426 54.2141
  Z"
/>
<path fill="#ff4c29" d="
  M 81.96 73.87
  L 77.11 73.93
  A 0.38 0.38 0.0 0 1 76.73 73.55
  L 76.73 53.13
  A 0.38 0.38 0.0 0 1 77.11 52.75
  L 81.60 52.72
  A 0.38 0.38 0.0 0 0 81.97 52.34
  L 81.92 47.83
  A 0.38 0.38 0.0 0 1 82.30 47.44
  L 92.28 47.56
  A 0.38 0.38 0.0 0 1 92.65 47.90
  L 93.04 52.42
  A 0.38 0.38 0.0 0 0 93.46 52.76
  L 97.74 52.22
  A 0.38 0.38 0.0 0 1 98.17 52.60
  L 98.23 73.48
  A 0.38 0.38 0.0 0 1 97.86 73.86
  L 92.97 73.95
  A 0.38 0.38 0.0 0 1 92.58 73.56
  L 92.73 69.29
  A 0.38 0.38 0.0 0 0 92.35 68.90
  L 82.62 68.85
  A 0.38 0.38 0.0 0 0 82.24 69.24
  L 82.34 73.49
  A 0.38 0.38 0.0 0 1 81.96 73.87
  Z
  M 92.6578 53.7491
  A 0.73 0.73 0.0 0 0 91.9290 53.0178
  L 82.9890 53.0022
  A 0.73 0.73 0.0 0 0 82.2578 53.7309
  L 82.2422 62.6309
  A 0.73 0.73 0.0 0 0 82.9710 63.3622
  L 91.9110 63.3778
  A 0.73 0.73 0.0 0 0 92.6422 62.6491
  L 92.6578 53.7491
  Z"
/>
<path fill="#ff4c29" d="
  M 120.33 56.75
  L 120.47 53.43
  Q 120.51 52.62 121.32 52.65
  L 124.84 52.78
  Q 125.48 52.80 125.50 52.16
  L 125.64 47.98
  Q 125.65 47.61 126.02 47.60
  L 130.71 47.45
  Q 131.24 47.43 131.24 47.96
  L 131.25 73.49
  A 0.48 0.48 0.0 0 1 130.76 73.97
  L 125.96 73.85
  Q 125.47 73.84 125.49 73.34
  Q 125.81 66.64 125.17 59.15
  Q 125.12 58.51 124.48 58.46
  L 121.46 58.22
  Q 120.69 58.15 120.62 58.92
  L 120.23 62.95
  A 0.55 0.54 0.6 0 1 119.72 63.44
  L 116.10 63.68
  A 0.94 0.93 -3.3 0 1 115.10 62.80
  L 114.88 59.18
  Q 114.82 58.29 113.93 58.30
  L 111.06 58.35
  Q 110.24 58.37 110.22 59.19
  L 109.93 72.88
  Q 109.91 73.93 108.87 73.93
  L 105.31 73.94
  Q 104.30 73.95 104.34 72.93
  Q 104.63 64.64 104.26 54.80
  Q 104.17 52.57 104.69 49.14
  Q 104.93 47.59 106.49 47.62
  L 108.19 47.65
  Q 109.94 47.68 109.96 49.43
  L 110.00 52.02
  A 0.54 0.54 0.0 0 0 110.52 52.55
  L 113.96 52.67
  Q 115.33 52.71 115.40 54.08
  L 115.52 56.62
  Q 115.56 57.60 116.51 57.84
  Q 117.94 58.22 119.41 57.86
  Q 120.29 57.65 120.33 56.75
  Z"
/>
</svg>
