<?xml version="1.0" encoding="UTF-8" standalone="no"?>
<!DOCTYPE svg PUBLIC "-//W3C//DTD SVG 1.1//EN" "http://www.w3.org/Graphics/SVG/1.1/DTD/svg11.dtd">
<svg xmlns="http://www.w3.org/2000/svg" version="1.1" viewBox="0.00 0.00 150.00 90.00">
<path fill="#ff0000" d="
  M 61.08 39.37
  Q 73.44 39.33 88.05 39.36
  Q 90.42 39.37 92.24 38.36
  C 95.21 36.71 96.51 32.06 94.83 28.99
  A 0.44 0.44 0.0 0 1 95.22 28.34
  L 114.77 28.35
  Q 115.40 28.35 115.44 28.98
  Q 116.82 47.29 103.19 57.99
  A 0.49 0.47 -31.0 0 0 103.04 58.55
  L 113.24 82.51
  A 0.30 0.29 78.6 0 1 112.97 82.92
  L 88.58 82.91
  A 0.65 0.62 -10.9 0 1 87.99 82.53
  L 78.27 59.98
  A 1.15 1.14 78.2 0 0 77.22 59.29
  L 58.44 59.30
  A 0.57 0.57 0.0 0 0 57.87 59.81
  L 55.70 82.18
  A 0.63 0.63 0.0 0 1 55.07 82.74
  L 33.45 82.75
  A 0.51 0.51 0.0 0 1 32.94 82.19
  L 40.44 7.50
  A 0.31 0.31 0.0 0 1 40.75 7.22
  L 90.23 7.21
  Q 90.76 7.21 90.76 7.73
  L 90.76 25.75
  Q 90.76 26.25 90.25 26.25
  L 62.07 26.25
  A 0.50 0.49 -86.7 0 0 61.58 26.69
  L 60.35 38.56
  Q 60.27 39.37 61.08 39.37
  Z"
/>
</svg>
