<?xml version="1.0" encoding="UTF-8" standalone="no"?>
<!DOCTYPE svg PUBLIC "-//W3C//DTD SVG 1.1//EN" "http://www.w3.org/Graphics/SVG/1.1/DTD/svg11.dtd">
<svg xmlns="http://www.w3.org/2000/svg" version="1.1" viewBox="0.00 0.00 655.00 437.00">
<g stroke-width="2.00" fill="none" stroke-linecap="butt">
<path stroke="#fb808d" vector-effect="non-scaling-stroke" d="
  M 602.53 128.32
  C 595.35 113.04 580.98 104.59 564.21 103.29
  Q 546.39 101.90 530.63 101.29
  Q 428.80 97.29 329.55 102.12
  Q 318.98 102.64 309.61 103.85
  C 295.55 105.67 282.03 114.03 275.93 127.03
  C 270.46 138.67 268.26 150.70 267.15 163.76
  Q 262.51 218.04 266.65 272.80
  C 267.79 287.86 269.32 299.50 274.48 312.52
  C 280.30 327.19 292.99 335.37 308.25 337.95
  Q 320.12 339.96 328.45 340.42
  Q 354.03 341.81 387.60 342.50
  Q 429.96 343.35 444.52 343.29
  Q 492.90 343.08 539.75 340.94
  Q 552.11 340.38 564.24 339.28
  C 580.06 337.84 594.10 330.56 601.38 316.50
  C 606.49 306.63 608.86 295.97 610.09 284.35
  C 613.22 254.83 613.45 223.58 612.54 194.33
  Q 612.01 177.21 610.13 158.74
  C 608.98 147.46 606.87 137.57 602.53 128.32"
/>
<path stroke="#7f7f80" vector-effect="non-scaling-stroke" d="
  M 71.12 199.71
  Q 70.86 199.65 70.79 199.38
  Q 62.89 169.28 54.97 139.69
  Q 54.86 139.28 54.43 139.28
  L 31.01 139.26
  A 0.32 0.32 0.0 0 0 30.70 139.68
  L 58.93 230.27
  Q 59.50 232.11 59.50 234.03
  L 59.50 296.49
  A 0.25 0.25 0.0 0 0 59.75 296.74
  L 82.28 296.71
  Q 82.81 296.71 82.81 296.18
  Q 82.74 266.03 82.81 234.45
  Q 82.82 232.62 83.37 230.84
  Q 97.52 185.52 111.77 139.99
  A 0.56 0.56 0.0 0 0 111.23 139.27
  L 88.04 139.26
  A 0.59 0.59 0.0 0 0 87.47 139.69
  L 71.59 199.42
  A 0.40 0.39 -75.8 0 1 71.12 199.71"
/>
<path stroke="#7f7f80" vector-effect="non-scaling-stroke" d="
  M 167.91 199.36
  C 162.91 181.82 146.56 175.53 129.74 179.20
  C 112.14 183.05 107.32 201.20 107.28 216.88
  Q 107.21 240.97 107.33 263.28
  Q 107.37 269.93 109.29 276.66
  C 117.81 306.49 161.26 305.85 168.55 275.73
  Q 170.12 269.23 170.18 262.10
  Q 170.33 243.18 170.20 215.97
  Q 170.16 207.26 167.91 199.36"
/>
<path stroke="#7f7f80" vector-effect="non-scaling-stroke" d="
  M 226.21 285.22
  L 226.14 296.19
  Q 226.14 296.75 226.69 296.75
  L 247.79 296.74
  Q 248.32 296.74 248.32 296.21
  L 248.34 179.83
  Q 248.34 179.07 247.58 179.07
  L 226.73 179.06
  Q 226.22 179.06 226.22 179.56
  Q 226.15 221.15 226.23 267.08
  C 226.23 270.09 221.95 274.24 219.49 276.41
  C 215.96 279.52 208.56 281.09 208.55 273.91
  Q 208.49 225.43 208.52 179.54
  A 0.51 0.50 -0.0 0 0 208.01 179.04
  L 187.04 179.05
  A 0.55 0.55 0.0 0 0 186.49 179.60
  Q 186.42 227.09 186.51 275.15
  Q 186.52 281.21 188.39 287.62
  C 191.78 299.29 204.24 301.00 213.44 295.25
  C 217.93 292.44 221.78 288.81 225.31 284.88
  Q 226.21 283.87 226.21 285.22"
/>
<path stroke="#fb808d" vector-effect="non-scaling-stroke" d="
  M 318.96 162.84
  A 0.51 0.51 0.0 0 1 319.25 163.30
  L 319.25 295.98
  Q 319.25 296.47 319.73 296.47
  L 341.56 296.65
  A 0.96 0.96 0.0 0 0 342.53 295.69
  L 342.51 163.28
  A 0.58 0.57 -89.5 0 1 343.09 162.70
  L 367.26 162.73
  A 0.99 0.99 0.0 0 0 368.25 161.74
  L 368.23 141.17
  Q 368.23 140.61 367.67 140.61
  L 295.47 140.71
  A 0.57 0.57 0.0 0 0 294.90 141.28
  L 294.95 162.07
  A 0.66 0.66 0.0 0 0 295.61 162.73
  Q 306.74 162.82 318.03 162.64
  Q 318.51 162.63 318.96 162.84"
/>
<path stroke="#fb808d" vector-effect="non-scaling-stroke" d="
  M 464.74 286.27
  Q 464.71 284.91 465.60 285.94
  C 472.12 293.44 481.52 300.30 492.12 297.56
  C 499.55 295.64 503.77 289.47 505.19 282.03
  Q 506.53 274.94 506.63 269.09
  Q 507.02 246.22 506.69 210.93
  C 506.56 197.65 503.32 175.73 484.38 178.51
  C 476.88 179.61 470.40 184.87 465.64 190.47
  Q 464.74 191.52 464.74 190.14
  L 464.81 141.00
  A 0.37 0.37 0.0 0 0 464.44 140.63
  L 444.96 140.74
  A 1.05 1.05 0.0 0 0 443.92 141.79
  L 443.86 295.72
  A 0.85 0.85 0.0 0 0 444.72 296.57
  L 463.72 296.53
  Q 464.97 296.53 464.94 295.28
  L 464.74 286.27"
/>
<path stroke="#fb808d" vector-effect="non-scaling-stroke" d="
  M 543.28 241.87
  L 584.01 241.94
  A 0.87 0.86 -89.3 0 0 584.88 241.08
  Q 585.00 228.98 584.77 215.82
  C 584.68 210.47 584.05 203.87 582.21 199.04
  Q 573.91 177.32 550.25 178.61
  C 530.90 179.67 521.23 196.34 521.01 214.52
  Q 520.76 235.44 520.96 261.23
  C 521.08 276.63 526.79 291.22 542.11 296.37
  C 549.99 299.02 559.50 298.72 567.23 295.53
  C 577.88 291.13 584.12 279.94 584.53 268.51
  Q 584.76 262.42 584.80 256.54
  Q 584.81 255.93 584.20 255.93
  L 563.26 256.00
  A 0.54 0.54 0.0 0 0 562.72 256.55
  Q 562.86 263.40 562.67 269.47
  C 562.51 274.23 559.32 278.61 554.30 279.03
  C 544.38 279.87 542.80 270.40 542.78 263.00
  Q 542.74 252.33 542.75 242.41
  Q 542.75 241.87 543.28 241.87"
/>
<path stroke="#fb808d" vector-effect="non-scaling-stroke" d="
  M 404.41 285.06
  A 0.37 0.33 28.0 0 1 404.49 285.28
  L 404.39 296.00
  A 0.60 0.60 0.0 0 0 404.99 296.60
  L 425.81 296.60
  A 0.66 0.66 0.0 0 0 426.47 295.94
  L 426.48 180.98
  Q 426.48 180.24 425.73 180.24
  L 405.23 180.24
  A 0.77 0.77 0.0 0 0 404.46 181.01
  Q 404.38 220.90 404.47 260.57
  C 404.48 264.37 404.91 268.44 402.30 271.62
  C 399.41 275.15 394.86 280.13 390.00 278.81
  Q 386.73 277.91 386.73 273.98
  Q 386.74 227.65 386.76 180.97
  A 0.74 0.73 -0.0 0 0 386.02 180.24
  L 365.29 180.18
  Q 364.76 180.18 364.76 180.71
  Q 364.74 226.93 364.78 273.62
  C 364.79 283.54 366.63 297.98 379.96 298.26
  Q 385.41 298.37 389.34 296.44
  Q 396.38 292.99 403.17 285.13
  Q 403.42 284.83 403.85 284.78
  Q 404.16 284.75 404.41 285.06"
/>
<path stroke="#fb808d" vector-effect="non-scaling-stroke" d="
  M 484.69 207.05
  A 9.23 9.23 0.0 0 0 475.46 197.82
  L 473.98 197.82
  A 9.23 9.23 0.0 0 0 464.75 207.05
  L 464.75 269.71
  A 9.23 9.23 0.0 0 0 473.98 278.94
  L 475.46 278.94
  A 9.23 9.23 0.0 0 0 484.69 269.71
  L 484.69 207.05"
/>
<path stroke="#7f7f80" vector-effect="non-scaling-stroke" d="
  M 148.1253 207.2237
  A 9.13 9.13 0.0 0 0 138.9794 198.1096
  L 138.4794 198.1105
  A 9.13 9.13 0.0 0 0 129.3653 207.2564
  L 129.4747 269.9163
  A 9.13 9.13 0.0 0 0 138.6206 279.0304
  L 139.1206 279.0295
  A 9.13 9.13 0.0 0 0 148.2347 269.8836
  L 148.1253 207.2237"
/>
<path stroke="#fb808d" vector-effect="non-scaling-stroke" d="
  M 543.54 224.48
  L 561.98 224.54
  A 0.74 0.74 0.0 0 0 562.73 223.80
  L 562.78 207.54
  A 9.76 8.34 -89.8 0 0 554.48 197.76
  L 551.24 197.74
  A 9.76 8.34 -89.8 0 0 542.86 207.48
  L 542.81 223.74
  A 0.74 0.74 0.0 0 0 543.54 224.48"
/>
</g>
<path fill="#fdfdfc" d="
  M 0.00 0.00
  L 655.00 0.00
  L 655.00 437.00
  L 0.00 437.00
  L 0.00 0.00
  Z
  M 602.53 128.32
  C 595.35 113.04 580.98 104.59 564.21 103.29
  Q 546.39 101.90 530.63 101.29
  Q 428.80 97.29 329.55 102.12
  Q 318.98 102.64 309.61 103.85
  C 295.55 105.67 282.03 114.03 275.93 127.03
  C 270.46 138.67 268.26 150.70 267.15 163.76
  Q 262.51 218.04 266.65 272.80
  C 267.79 287.86 269.32 299.50 274.48 312.52
  C 280.30 327.19 292.99 335.37 308.25 337.95
  Q 320.12 339.96 328.45 340.42
  Q 354.03 341.81 387.60 342.50
  Q 429.96 343.35 444.52 343.29
  Q 492.90 343.08 539.75 340.94
  Q 552.11 340.38 564.24 339.28
  C 580.06 337.84 594.10 330.56 601.38 316.50
  C 606.49 306.63 608.86 295.97 610.09 284.35
  C 613.22 254.83 613.45 223.58 612.54 194.33
  Q 612.01 177.21 610.13 158.74
  C 608.98 147.46 606.87 137.57 602.53 128.32
  Z
  M 71.12 199.71
  Q 70.86 199.65 70.79 199.38
  Q 62.89 169.28 54.97 139.69
  Q 54.86 139.28 54.43 139.28
  L 31.01 139.26
  A 0.32 0.32 0.0 0 0 30.70 139.68
  L 58.93 230.27
  Q 59.50 232.11 59.50 234.03
  L 59.50 296.49
  A 0.25 0.25 0.0 0 0 59.75 296.74
  L 82.28 296.71
  Q 82.81 296.71 82.81 296.18
  Q 82.74 266.03 82.81 234.45
  Q 82.82 232.62 83.37 230.84
  Q 97.52 185.52 111.77 139.99
  A 0.56 0.56 0.0 0 0 111.23 139.27
  L 88.04 139.26
  A 0.59 0.59 0.0 0 0 87.47 139.69
  L 71.59 199.42
  A 0.40 0.39 -75.8 0 1 71.12 199.71
  Z
  M 167.91 199.36
  C 162.91 181.82 146.56 175.53 129.74 179.20
  C 112.14 183.05 107.32 201.20 107.28 216.88
  Q 107.21 240.97 107.33 263.28
  Q 107.37 269.93 109.29 276.66
  C 117.81 306.49 161.26 305.85 168.55 275.73
  Q 170.12 269.23 170.18 262.10
  Q 170.33 243.18 170.20 215.97
  Q 170.16 207.26 167.91 199.36
  Z
  M 226.21 285.22
  L 226.14 296.19
  Q 226.14 296.75 226.69 296.75
  L 247.79 296.74
  Q 248.32 296.74 248.32 296.21
  L 248.34 179.83
  Q 248.34 179.07 247.58 179.07
  L 226.73 179.06
  Q 226.22 179.06 226.22 179.56
  Q 226.15 221.15 226.23 267.08
  C 226.23 270.09 221.95 274.24 219.49 276.41
  C 215.96 279.52 208.56 281.09 208.55 273.91
  Q 208.49 225.43 208.52 179.54
  A 0.51 0.50 -0.0 0 0 208.01 179.04
  L 187.04 179.05
  A 0.55 0.55 0.0 0 0 186.49 179.60
  Q 186.42 227.09 186.51 275.15
  Q 186.52 281.21 188.39 287.62
  C 191.78 299.29 204.24 301.00 213.44 295.25
  C 217.93 292.44 221.78 288.81 225.31 284.88
  Q 226.21 283.87 226.21 285.22
  Z"
/>
<path fill="#f9031d" d="
  M 564.21 103.29
  C 580.98 104.59 595.35 113.04 602.53 128.32
  C 606.87 137.57 608.98 147.46 610.13 158.74
  Q 612.01 177.21 612.54 194.33
  C 613.45 223.58 613.22 254.83 610.09 284.35
  C 608.86 295.97 606.49 306.63 601.38 316.50
  C 594.10 330.56 580.06 337.84 564.24 339.28
  Q 552.11 340.38 539.75 340.94
  Q 492.90 343.08 444.52 343.29
  Q 429.96 343.35 387.60 342.50
  Q 354.03 341.81 328.45 340.42
  Q 320.12 339.96 308.25 337.95
  C 292.99 335.37 280.30 327.19 274.48 312.52
  C 269.32 299.50 267.79 287.86 266.65 272.80
  Q 262.51 218.04 267.15 163.76
  C 268.26 150.70 270.46 138.67 275.93 127.03
  C 282.03 114.03 295.55 105.67 309.61 103.85
  Q 318.98 102.64 329.55 102.12
  Q 428.80 97.29 530.63 101.29
  Q 546.39 101.90 564.21 103.29
  Z
  M 318.96 162.84
  A 0.51 0.51 0.0 0 1 319.25 163.30
  L 319.25 295.98
  Q 319.25 296.47 319.73 296.47
  L 341.56 296.65
  A 0.96 0.96 0.0 0 0 342.53 295.69
  L 342.51 163.28
  A 0.58 0.57 -89.5 0 1 343.09 162.70
  L 367.26 162.73
  A 0.99 0.99 0.0 0 0 368.25 161.74
  L 368.23 141.17
  Q 368.23 140.61 367.67 140.61
  L 295.47 140.71
  A 0.57 0.57 0.0 0 0 294.90 141.28
  L 294.95 162.07
  A 0.66 0.66 0.0 0 0 295.61 162.73
  Q 306.74 162.82 318.03 162.64
  Q 318.51 162.63 318.96 162.84
  Z
  M 464.74 286.27
  Q 464.71 284.91 465.60 285.94
  C 472.12 293.44 481.52 300.30 492.12 297.56
  C 499.55 295.64 503.77 289.47 505.19 282.03
  Q 506.53 274.94 506.63 269.09
  Q 507.02 246.22 506.69 210.93
  C 506.56 197.65 503.32 175.73 484.38 178.51
  C 476.88 179.61 470.40 184.87 465.64 190.47
  Q 464.74 191.52 464.74 190.14
  L 464.81 141.00
  A 0.37 0.37 0.0 0 0 464.44 140.63
  L 444.96 140.74
  A 1.05 1.05 0.0 0 0 443.92 141.79
  L 443.86 295.72
  A 0.85 0.85 0.0 0 0 444.72 296.57
  L 463.72 296.53
  Q 464.97 296.53 464.94 295.28
  L 464.74 286.27
  Z
  M 543.28 241.87
  L 584.01 241.94
  A 0.87 0.86 -89.3 0 0 584.88 241.08
  Q 585.00 228.98 584.77 215.82
  C 584.68 210.47 584.05 203.87 582.21 199.04
  Q 573.91 177.32 550.25 178.61
  C 530.90 179.67 521.23 196.34 521.01 214.52
  Q 520.76 235.44 520.96 261.23
  C 521.08 276.63 526.79 291.22 542.11 296.37
  C 549.99 299.02 559.50 298.72 567.23 295.53
  C 577.88 291.13 584.12 279.94 584.53 268.51
  Q 584.76 262.42 584.80 256.54
  Q 584.81 255.93 584.20 255.93
  L 563.26 256.00
  A 0.54 0.54 0.0 0 0 562.72 256.55
  Q 562.86 263.40 562.67 269.47
  C 562.51 274.23 559.32 278.61 554.30 279.03
  C 544.38 279.87 542.80 270.40 542.78 263.00
  Q 542.74 252.33 542.75 242.41
  Q 542.75 241.87 543.28 241.87
  Z
  M 404.41 285.06
  A 0.37 0.33 28.0 0 1 404.49 285.28
  L 404.39 296.00
  A 0.60 0.60 0.0 0 0 404.99 296.60
  L 425.81 296.60
  A 0.66 0.66 0.0 0 0 426.47 295.94
  L 426.48 180.98
  Q 426.48 180.24 425.73 180.24
  L 405.23 180.24
  A 0.77 0.77 0.0 0 0 404.46 181.01
  Q 404.38 220.90 404.47 260.57
  C 404.48 264.37 404.91 268.44 402.30 271.62
  C 399.41 275.15 394.86 280.13 390.00 278.81
  Q 386.73 277.91 386.73 273.98
  Q 386.74 227.65 386.76 180.97
  A 0.74 0.73 -0.0 0 0 386.02 180.24
  L 365.29 180.18
  Q 364.76 180.18 364.76 180.71
  Q 364.74 226.93 364.78 273.62
  C 364.79 283.54 366.63 297.98 379.96 298.26
  Q 385.41 298.37 389.34 296.44
  Q 396.38 292.99 403.17 285.13
  Q 403.42 284.83 403.85 284.78
  Q 404.16 284.75 404.41 285.06
  Z"
/>
<path fill="#010103" d="
  M 71.12 199.71
  A 0.40 0.39 -75.8 0 0 71.59 199.42
  L 87.47 139.69
  A 0.59 0.59 0.0 0 1 88.04 139.26
  L 111.23 139.27
  A 0.56 0.56 0.0 0 1 111.77 139.99
  Q 97.52 185.52 83.37 230.84
  Q 82.82 232.62 82.81 234.45
  Q 82.74 266.03 82.81 296.18
  Q 82.81 296.71 82.28 296.71
  L 59.75 296.74
  A 0.25 0.25 0.0 0 1 59.50 296.49
  L 59.50 234.03
  Q 59.50 232.11 58.93 230.27
  L 30.70 139.68
  A 0.32 0.32 0.0 0 1 31.01 139.26
  L 54.43 139.28
  Q 54.86 139.28 54.97 139.69
  Q 62.89 169.28 70.79 199.38
  Q 70.86 199.65 71.12 199.71
  Z"
/>
<path fill="#fdfdfc" d="
  M 318.96 162.84
  Q 318.51 162.63 318.03 162.64
  Q 306.74 162.82 295.61 162.73
  A 0.66 0.66 0.0 0 1 294.95 162.07
  L 294.90 141.28
  A 0.57 0.57 0.0 0 1 295.47 140.71
  L 367.67 140.61
  Q 368.23 140.61 368.23 141.17
  L 368.25 161.74
  A 0.99 0.99 0.0 0 1 367.26 162.73
  L 343.09 162.70
  A 0.58 0.57 -89.5 0 0 342.51 163.28
  L 342.53 295.69
  A 0.96 0.96 0.0 0 1 341.56 296.65
  L 319.73 296.47
  Q 319.25 296.47 319.25 295.98
  L 319.25 163.30
  A 0.51 0.51 0.0 0 0 318.96 162.84
  Z"
/>
<path fill="#fdfdfc" d="
  M 464.74 286.27
  L 464.94 295.28
  Q 464.97 296.53 463.72 296.53
  L 444.72 296.57
  A 0.85 0.85 0.0 0 1 443.86 295.72
  L 443.92 141.79
  A 1.05 1.05 0.0 0 1 444.96 140.74
  L 464.44 140.63
  A 0.37 0.37 0.0 0 1 464.81 141.00
  L 464.74 190.14
  Q 464.74 191.52 465.64 190.47
  C 470.40 184.87 476.88 179.61 484.38 178.51
  C 503.32 175.73 506.56 197.65 506.69 210.93
  Q 507.02 246.22 506.63 269.09
  Q 506.53 274.94 505.19 282.03
  C 503.77 289.47 499.55 295.64 492.12 297.56
  C 481.52 300.30 472.12 293.44 465.60 285.94
  Q 464.71 284.91 464.74 286.27
  Z
  M 484.69 207.05
  A 9.23 9.23 0.0 0 0 475.46 197.82
  L 473.98 197.82
  A 9.23 9.23 0.0 0 0 464.75 207.05
  L 464.75 269.71
  A 9.23 9.23 0.0 0 0 473.98 278.94
  L 475.46 278.94
  A 9.23 9.23 0.0 0 0 484.69 269.71
  L 484.69 207.05
  Z"
/>
<path fill="#010103" d="
  M 129.74 179.20
  C 146.56 175.53 162.91 181.82 167.91 199.36
  Q 170.16 207.26 170.20 215.97
  Q 170.33 243.18 170.18 262.10
  Q 170.12 269.23 168.55 275.73
  C 161.26 305.85 117.81 306.49 109.29 276.66
  Q 107.37 269.93 107.33 263.28
  Q 107.21 240.97 107.28 216.88
  C 107.32 201.20 112.14 183.05 129.74 179.20
  Z
  M 148.1253 207.2237
  A 9.13 9.13 0.0 0 0 138.9794 198.1096
  L 138.4794 198.1105
  A 9.13 9.13 0.0 0 0 129.3653 207.2564
  L 129.4747 269.9163
  A 9.13 9.13 0.0 0 0 138.6206 279.0304
  L 139.1206 279.0295
  A 9.13 9.13 0.0 0 0 148.2347 269.8836
  L 148.1253 207.2237
  Z"
/>
<path fill="#fdfdfc" d="
  M 542.75 242.41
  Q 542.74 252.33 542.78 263.00
  C 542.80 270.40 544.38 279.87 554.30 279.03
  C 559.32 278.61 562.51 274.23 562.67 269.47
  Q 562.86 263.40 562.72 256.55
  A 0.54 0.54 0.0 0 1 563.26 256.00
  L 584.20 255.93
  Q 584.81 255.93 584.80 256.54
  Q 584.76 262.42 584.53 268.51
  C 584.12 279.94 577.88 291.13 567.23 295.53
  C 559.50 298.72 549.99 299.02 542.11 296.37
  C 526.79 291.22 521.08 276.63 520.96 261.23
  Q 520.76 235.44 521.01 214.52
  C 521.23 196.34 530.90 179.67 550.25 178.61
  Q 573.91 177.32 582.21 199.04
  C 584.05 203.87 584.68 210.47 584.77 215.82
  Q 585.00 228.98 584.88 241.08
  A 0.87 0.86 -89.3 0 1 584.01 241.94
  L 543.28 241.87
  Q 542.75 241.87 542.75 242.41
  Z
  M 543.54 224.48
  L 561.98 224.54
  A 0.74 0.74 0.0 0 0 562.73 223.80
  L 562.78 207.54
  A 9.76 8.34 -89.8 0 0 554.48 197.76
  L 551.24 197.74
  A 9.76 8.34 -89.8 0 0 542.86 207.48
  L 542.81 223.74
  A 0.74 0.74 0.0 0 0 543.54 224.48
  Z"
/>
<path fill="#010103" d="
  M 226.21 285.22
  Q 226.21 283.87 225.31 284.88
  C 221.78 288.81 217.93 292.44 213.44 295.25
  C 204.24 301.00 191.78 299.29 188.39 287.62
  Q 186.52 281.21 186.51 275.15
  Q 186.42 227.09 186.49 179.60
  A 0.55 0.55 0.0 0 1 187.04 179.05
  L 208.01 179.04
  A 0.51 0.50 0.0 0 1 208.52 179.54
  Q 208.49 225.43 208.55 273.91
  C 208.56 281.09 215.96 279.52 219.49 276.41
  C 221.95 274.24 226.23 270.09 226.23 267.08
  Q 226.15 221.15 226.22 179.56
  Q 226.22 179.06 226.73 179.06
  L 247.58 179.07
  Q 248.34 179.07 248.34 179.83
  L 248.32 296.21
  Q 248.32 296.74 247.79 296.74
  L 226.69 296.75
  Q 226.14 296.75 226.14 296.19
  L 226.21 285.22
  Z"
/>
<path fill="#fdfdfc" d="
  M 404.41 285.06
  Q 404.16 284.75 403.85 284.78
  Q 403.42 284.83 403.17 285.13
  Q 396.38 292.99 389.34 296.44
  Q 385.41 298.37 379.96 298.26
  C 366.63 297.98 364.79 283.54 364.78 273.62
  Q 364.74 226.93 364.76 180.71
  Q 364.76 180.18 365.29 180.18
  L 386.02 180.24
  A 0.74 0.73 -0.0 0 1 386.76 180.97
  Q 386.74 227.65 386.73 273.98
  Q 386.73 277.91 390.00 278.81
  C 394.86 280.13 399.41 275.15 402.30 271.62
  C 404.91 268.44 404.48 264.37 404.47 260.57
  Q 404.38 220.90 404.46 181.01
  A 0.77 0.77 0.0 0 1 405.23 180.24
  L 425.73 180.24
  Q 426.48 180.24 426.48 180.98
  L 426.47 295.94
  A 0.66 0.66 0.0 0 1 425.81 296.60
  L 404.99 296.60
  A 0.60 0.60 0.0 0 1 404.39 296.00
  L 404.49 285.28
  A 0.37 0.33 28.0 0 0 404.41 285.06
  Z"
/>
<rect fill="#f9031d" x="464.75" y="197.82" width="19.94" height="81.12" rx="9.23"/>
<path fill="#f9031d" d="
  M 543.54 224.48
  A 0.74 0.74 0.0 0 1 542.81 223.74
  L 542.86 207.48
  A 9.76 8.34 -89.8 0 1 551.24 197.74
  L 554.48 197.76
  A 9.76 8.34 -89.8 0 1 562.78 207.54
  L 562.73 223.80
  A 0.74 0.74 0.0 0 1 561.98 224.54
  L 543.54 224.48
  Z"
/>
<rect fill="#fdfdfc" x="-9.38" y="-40.46" transform="translate(138.80,238.57) rotate(-0.1)" width="18.76" height="80.92" rx="9.13"/>
</svg>
